<svg width="511" height="269" viewBox="0 0 511 269" fill="none" xmlns="http://www.w3.org/2000/svg">
<path d="M499.435 197.796L489.354 198.011L484.236 198.096C482.523 198.134 480.801 198.096 479.088 198.142H478.75V197.796L478.704 189.175V188.791H479.088L489.262 188.837C492.658 188.837 496.047 188.921 499.435 188.96H499.651V189.175C499.651 190.635 499.589 192.087 499.551 193.524L499.435 197.796ZM499.435 197.796L499.328 193.455C499.289 192.026 499.243 190.612 499.228 189.198L499.435 189.413C496.047 189.451 492.658 189.536 489.262 189.536L479.088 189.582L479.472 189.198V197.796L479.126 197.458C480.801 197.458 482.477 197.458 484.159 197.497L489.162 197.627L499.435 197.796Z" fill="#EBEBEB"/>
<path d="M488.086 208.638L478.004 208.854L472.879 208.938C471.173 208.938 469.452 208.938 467.739 208.984H467.4V208.638V200.04V199.656H467.785L477.958 199.71C481.347 199.71 484.743 199.794 488.132 199.832H488.347V200.04C488.347 201.5 488.286 202.952 488.247 204.389L488.086 208.638ZM488.086 208.638L487.978 204.297C487.94 202.868 487.894 201.454 487.879 200.04L488.086 200.255C484.697 200.294 481.301 200.378 477.912 200.378L467.739 200.424L468.123 200.04V208.638L467.777 208.3C469.452 208.3 471.127 208.3 472.81 208.339L477.858 208.431L488.086 208.638Z" fill="#EBEBEB"/>
<path d="M510.785 208.638L500.703 208.854L495.586 208.938C493.872 208.938 492.151 208.938 490.437 208.984H490.099V208.638L490.053 200.04V199.656H490.437L500.611 199.71C504.007 199.71 507.396 199.794 510.785 199.832H511V200.04C511 201.5 510.931 202.952 510.9 204.389L510.785 208.638ZM510.785 208.638L510.677 204.297C510.677 202.868 510.593 201.454 510.577 200.04L510.785 200.255C507.396 200.294 504.007 200.378 500.611 200.378L490.437 200.424L490.822 200.04V208.638L490.476 208.3C492.159 208.3 493.826 208.3 495.509 208.339L500.565 208.431L510.785 208.638Z" fill="#EBEBEB"/>
<path d="M209.299 95.4824L199.218 95.6976L194.1 95.7821C192.387 95.7821 190.665 95.7821 188.952 95.7821H188.614V95.4363L188.568 86.8378V86.4536H188.952L199.126 86.4997C202.522 86.4997 205.911 86.5842 209.299 86.6227H209.515V86.8301C209.515 88.2901 209.445 89.7347 209.407 91.1716L209.299 95.4824ZM209.299 95.4824L209.192 91.1332C209.192 89.704 209.107 88.2901 209.092 86.8839L209.299 87.0914C205.911 87.0914 202.522 87.2143 199.126 87.2143L188.952 87.2681L189.336 86.8839L189.298 95.4824L188.952 95.1366C190.627 95.1366 192.302 95.1366 193.985 95.1827L199.041 95.2673L209.299 95.4824Z" fill="#EBEBEB"/>
<path d="M197.935 106.325L187.853 106.54L182.728 106.624C181.022 106.624 179.301 106.624 177.587 106.663H177.249V106.317L177.188 97.7338V97.3496H177.572L187.745 97.3957C191.134 97.3957 194.531 97.4802 197.919 97.5187H198.134V97.7338C198.134 99.1938 198.073 100.638 198.035 102.075L197.935 106.325ZM197.935 106.325L197.827 101.975C197.789 100.546 197.743 99.1323 197.727 97.7261L197.935 97.9336C194.546 97.972 191.15 98.0565 187.761 98.0565L177.587 98.1103L177.971 97.7261L177.956 106.325L177.61 105.979C179.285 105.979 180.96 105.979 182.643 106.025L187.692 106.109L197.935 106.325Z" fill="#EBEBEB"/>
<path d="M220.649 106.325L210.567 106.54L205.45 106.624C203.736 106.624 202.023 106.624 200.301 106.663H199.963V106.317L199.917 97.7338V97.3496H200.301L210.475 97.3957C213.871 97.3957 217.26 97.4802 220.649 97.5187H220.864V97.7338C220.864 99.1938 220.795 100.638 220.764 102.075L220.649 106.325ZM220.649 106.325L220.541 101.975C220.541 100.546 220.457 99.1323 220.441 97.7261L220.649 97.9336C217.26 97.972 213.871 98.0565 210.475 98.0565L200.301 98.1103L200.686 97.7261L200.647 106.325L200.301 105.979C201.984 105.979 203.652 105.979 205.334 106.025L210.391 106.109L220.649 106.325Z" fill="#EBEBEB"/>
<path d="M43.3921 152.376L33.3106 152.591L28.1853 152.675C26.4794 152.675 24.7582 152.675 23.0446 152.714H22.7372V152.368V143.769V143.385H23.1214L33.2952 143.431C36.6839 143.431 40.0802 143.516 43.4689 143.554H43.6841V143.762C43.6841 145.222 43.6226 146.666 43.5842 148.103L43.3921 152.376ZM43.3921 152.376L43.2845 148.026C43.2845 146.597 43.2 145.183 43.1846 143.777L43.3921 143.985C40.0034 144.023 36.607 144.108 33.2183 144.108L23.0446 144.161L23.4288 143.777L23.3904 152.376L23.0446 152.03C24.7197 152.03 26.3949 152.03 28.0777 152.076L33.1261 152.16L43.3921 152.376Z" fill="#EBEBEB"/>
<path d="M380.708 95.4753L370.627 95.6904L365.509 95.7749C363.796 95.8134 362.075 95.7749 360.361 95.8134H360.023V95.4676L359.977 86.8691V86.4849H360.361L370.535 86.531C373.931 86.531 377.32 86.6232 380.708 86.6616H380.924V86.8691C380.924 88.329 380.862 89.7813 380.824 91.2106L380.708 95.4753ZM380.708 95.4753L380.601 91.1337C380.562 89.6968 380.516 88.2829 380.501 86.8767L380.708 87.0842C377.32 87.1226 373.931 87.2072 370.535 87.2148L360.361 87.261L360.745 86.8767L360.707 95.4753L360.361 95.1295C362.036 95.1295 363.711 95.1295 365.394 95.1756L370.45 95.2601L380.708 95.4753Z" fill="#EBEBEB"/>
<path d="M498.26 11.9642L488.178 12.1793L483.053 12.2638C481.347 12.2638 479.626 12.2638 477.912 12.3099H477.574V11.9642V3.36565V2.98145H477.958L488.132 3.02755C491.521 3.02755 494.917 3.11976 498.306 3.15818H498.521V3.36565C498.521 4.82563 498.46 6.27792 498.421 7.70717L498.26 11.9642ZM498.26 11.9642L498.152 7.62264C498.114 6.18571 498.068 4.77184 498.052 3.36565L498.26 3.57312C494.871 3.57312 491.475 3.69607 488.086 3.70375L477.912 3.74985L478.296 3.36565L478.258 11.9642L477.912 11.6184C479.587 11.6184 481.263 11.6184 482.945 11.6645L487.994 11.749L498.26 11.9642Z" fill="#EBEBEB"/>
<path d="M509.609 22.8063L499.528 23.0215L494.41 23.106C492.696 23.1444 490.975 23.106 489.262 23.1444H488.924V22.7986L488.877 14.2001V13.8159H489.262L499.435 13.862C502.832 13.862 506.22 13.9542 509.609 13.9926H509.824V14.2001C509.824 15.6601 509.755 17.1124 509.717 18.5416L509.609 22.8063ZM509.609 22.8063L509.502 18.4648C509.502 17.0279 509.417 15.614 509.402 14.2078L509.609 14.4153C506.22 14.4537 502.832 14.5382 499.435 14.5459L489.262 14.592L489.646 14.2078V22.8063L489.3 22.4605C490.975 22.4605 492.65 22.4605 494.333 22.5066L499.389 22.5912L509.609 22.8063Z" fill="#EBEBEB"/>
<path d="M20.6933 11.9715L10.604 12.1866L5.48644 12.2712C3.78057 12.2712 2.05934 12.2712 0.345785 12.3173H0V11.9715V3.37297V2.98877H0.391888L10.5656 3.04256C13.9543 3.04256 17.343 3.12708 20.7394 3.1655H20.9468V3.37297C20.9468 4.83295 20.8777 6.28525 20.8469 7.72217L20.6933 11.9715ZM20.6933 11.9715L20.578 7.62996C20.578 6.19304 20.4935 4.77916 20.4781 3.37297L20.6933 3.58045C17.2969 3.62655 13.9082 3.70339 10.5195 3.71107L0.345785 3.75718L0.72999 3.37297L0.683884 11.9715L0.345785 11.6718C2.02092 11.6718 3.68837 11.6718 5.37118 11.6718L10.4273 11.7563L20.6933 11.9715Z" fill="#EBEBEB"/>
<path d="M269.919 118.627C268.976 119.517 267.807 120.131 266.538 120.402C265.77 120.601 264.917 120.717 264.102 120.863H261.321C260.176 120.686 259.015 120.548 257.901 120.325C253.737 119.431 249.793 117.718 246.298 115.284C237.095 109.2 229.34 101.168 223.584 91.7554C221.654 88.6496 220.325 85.2089 219.665 81.6124C219.496 80.6673 219.366 79.7144 219.22 78.7616V75.98C219.45 74.9119 219.634 73.8284 219.919 72.7757C220.199 71.7877 220.728 70.8881 221.456 70.1631C221.594 70.286 221.717 70.3859 221.84 70.5089C226.266 74.9298 230.694 79.3507 235.126 83.7716C235.269 83.891 235.371 84.0523 235.418 84.2329C235.465 84.4135 235.454 84.6042 235.387 84.7782C235.05 85.8738 235.005 87.0383 235.256 88.1567C235.506 89.2751 236.044 90.3089 236.816 91.156C240.596 95.4492 244.643 99.4992 248.934 103.282C249.789 104.058 250.833 104.598 251.961 104.847C253.089 105.097 254.263 105.047 255.366 104.703C255.688 104.619 255.919 104.565 256.195 104.841C260.719 109.39 265.252 113.929 269.796 118.458C269.819 118.481 269.85 118.55 269.919 118.627Z" fill="#EBEBEB"/>
<path d="M278.618 108.691V109.613C278.217 110.191 277.783 110.745 277.319 111.273C275.951 112.695 274.537 114.07 273.147 115.461L272.716 115.868L259.054 102.214C260.844 100.446 262.627 98.6406 264.471 96.8809C264.671 96.6954 264.906 96.5518 265.163 96.4589C265.419 96.3659 265.691 96.3254 265.964 96.3397C266.236 96.3541 266.503 96.423 266.748 96.5423C266.993 96.6617 267.212 96.8291 267.391 97.0346C268.421 98.0335 269.42 99.0555 270.465 100.062C272.839 102.444 275.229 104.811 277.58 107.208C277.964 107.675 278.311 108.171 278.618 108.691Z" fill="#EBEBEB"/>
<path d="M242.802 76.0495C241.112 77.6862 239.383 79.2845 237.707 80.8674L224.153 67.3204C224.452 67.0514 224.798 66.7671 225.113 66.4598C226.358 65.2226 227.58 63.9547 228.848 62.7407C229.363 62.2888 229.904 61.868 230.469 61.4805H231.399C231.917 61.7987 232.41 62.1557 232.874 62.5486C236.194 65.8373 239.5 69.1415 242.794 72.461C244.039 73.7059 244.039 74.8277 242.802 76.0495Z" fill="#EBEBEB"/>
<path d="M15.6371 83.5875H104.565V27.1709H15.6371V83.5875Z" fill="#EBEBEB"/>
<path d="M121.201 83.5874H104.565V66.2598L121.201 83.5874Z" fill="#EBEBEB"/>
<path d="M94.2685 36.9219H25.9261V37.9976H94.2685V36.9219Z" fill="white"/>
<path d="M61.2499 42.7158H25.9261V43.7916H61.2499V42.7158Z" fill="white"/>
<path d="M81.1902 54.2959H25.9261V55.3717H81.1902V54.2959Z" fill="white"/>
<path d="M94.2685 60.082H25.9261V61.1578H94.2685V60.082Z" fill="white"/>
<path d="M94.2685 65.8682H25.9261V66.9439H94.2685V65.8682Z" fill="white"/>
<path d="M50.2079 71.6616H25.9261V72.7374H50.2079V71.6616Z" fill="white"/>
<path d="M495.493 106.118H406.565V155.872H495.493V106.118Z" fill="#DBDBDB"/>
<path d="M389.929 155.88H406.565V138.552L389.929 155.88Z" fill="#DBDBDB"/>
<path d="M476.56 132.097H417.062V133.173H476.56V132.097Z" fill="white"/>
<path d="M464.327 137.891H417.062V138.967H464.327V137.891Z" fill="white"/>
<path d="M467.892 120.518H417.062V121.593H467.892V120.518Z" fill="white"/>
<path d="M483.429 114.731H417.062V115.807H483.429V114.731Z" fill="white"/>
<path d="M469.229 143.677H417.062V144.753H469.229V143.677Z" fill="white"/>
<path d="M450.565 53.2354H287.27V60.3969H450.565V53.2354Z" fill="#EBEBEB"/>
<path d="M303.583 60.4048H296.422V84.0872H303.583V60.4048Z" fill="#EBEBEB"/>
<path d="M303.583 60.4048H296.422V67.7277H303.583V60.4048Z" fill="#DBDBDB"/>
<path d="M441.413 60.4048H434.251V84.0872H441.413V60.4048Z" fill="#EBEBEB"/>
<path d="M441.413 60.4048H434.251V67.7277H441.413V60.4048Z" fill="#DBDBDB"/>
<path d="M329.248 53.2355V7.59961L317.753 7.59961V53.2355H329.248Z" fill="#C7C7C7"/>
<path d="M329.248 10.174V5.15625L317.753 5.15625V10.174H329.248Z" fill="#DBDBDB"/>
<path d="M329.24 18.465V16.6055H317.745V18.465H329.24Z" fill="#DBDBDB"/>
<path d="M330.677 47.2575V42.2397H317.753V47.2575H330.677Z" fill="#DBDBDB"/>
<path d="M337.278 53.2354V0L329.248 0V53.2354H337.278Z" fill="#DBDBDB"/>
<path d="M335.641 25.4806V5.00244H330.823V25.4806H335.641Z" fill="#EBEBEB"/>
<path d="M394.393 47.5487L356.534 10.123L350.889 15.8336L388.748 53.2593L394.393 47.5487Z" fill="#C7C7C7"/>
<path d="M384.403 39.8961L369.839 25.4995L366.452 28.9259L381.016 43.3224L384.403 39.8961Z" fill="#DBDBDB"/>
<path d="M350.91 53.251V12.8096H337.27V53.251H350.91Z" fill="#A6A6A6"/>
<path d="M350.91 48.9556V45.1904H337.27V48.9556H350.91Z" fill="#C7C7C7"/>
<path d="M350.91 42.7236V41.2637H337.27V42.7236H350.91Z" fill="#C7C7C7"/>
<path d="M317.753 53.2506V15.2451H308.332V53.2506H317.753Z" fill="#A6A6A6"/>
<path d="M317.753 49.2167V45.6743H308.332V49.2167H317.753Z" fill="#C7C7C7"/>
<path d="M317.753 26.6176V23.0752H308.332V26.6176H317.753Z" fill="#C7C7C7"/>
<path d="M317.753 30.4214V29.0459H308.332V30.4214H317.753Z" fill="#C7C7C7"/>
<path d="M433.398 35.5309L432.376 38.2434L431.746 39.8955L430.717 42.6156L426.705 53.2428H405.013L400.987 42.6156L399.957 39.8955L399.335 38.2434L398.305 35.5309L406.312 23.8588L402.162 16.167H429.564L425.391 23.8588L433.398 35.5309Z" fill="#DBDBDB"/>
<path d="M433.398 35.5312L432.376 38.2437H399.335L398.305 35.5312H433.398Z" fill="#A6A6A6"/>
<path d="M431.746 39.896L430.717 42.6162H400.987L399.957 39.896H431.746Z" fill="#A6A6A6"/>
<path d="M10.3044 260.353L71.6235 260.168L132.935 260.099L255.565 259.976L378.196 260.099L439.507 260.168L500.826 260.353L439.507 260.545L378.196 260.614L255.565 260.737L132.935 260.614L71.6235 260.545L10.3044 260.353Z" fill="#263238"/>
<path d="M248.911 260.337H343.164L324.376 151.016H253.89L248.911 260.337Z" fill="#DBDBDB"/>
<path d="M248.911 260.337H257.179L261.812 151.016H253.89L248.911 260.337Z" fill="#A6A6A6"/>
<path d="M330.808 172.446C341.473 196.267 367.246 235.802 378.78 226.004C396.031 211.359 407.71 178.962 412.321 165.861C414.91 158.523 377.527 146.244 375.237 152.906C371.979 162.372 366.869 182.159 363.911 184.964C362.374 186.431 350.126 169.242 340.859 161.089C327.481 149.34 327.404 164.839 330.808 172.446Z" fill="#AD6359"/>
<path d="M421.657 154.834C418.33 162.319 405.52 174.974 401.263 176.842C397.006 178.709 374.523 158.4 374.991 153.62C375.46 148.841 388.877 123.806 396.307 119.964C403.738 116.122 425.107 147.073 421.657 154.834Z" fill="#AD6359"/>
<path d="M376.751 148.364C376.751 148.364 377.289 137.714 374.6 128.709C372.34 121.14 368.137 110.159 372.156 108.791C380.424 105.987 390.905 133.381 390.905 133.381C390.905 133.381 393.595 146.213 385.657 149.717C380.678 151.915 376.751 148.364 376.751 148.364Z" fill="#AD6359"/>
<path d="M386.072 128.163C386.61 132.474 391.382 129.369 391.382 129.369C391.382 129.369 385.596 135.517 387.87 139.72C390.083 143.785 395.708 139.828 396.115 139.551C395.808 139.881 390.644 145.644 393.372 149.655C396.207 153.82 401.171 148.887 401.494 148.564C401.302 148.956 398.889 154.266 401.655 156.848C406.404 161.266 412.951 147.865 417.992 146.367C417.992 146.367 421.511 154.612 421.657 154.819C421.657 154.819 428.15 142.187 425.753 135.501C425.417 134.525 424.758 133.692 423.885 133.14C423.011 132.588 421.976 132.351 420.95 132.466C420.95 132.466 423.493 128.624 421.45 125.397C420.389 123.745 416.839 123.96 416.839 123.96C416.839 123.96 418.745 120.802 416.747 118.051C415.156 115.845 411.814 116.406 411.814 116.406C411.814 116.406 412.236 112.518 409.885 110.797C405.105 107.324 384.912 118.934 386.072 128.163Z" fill="#AD6359"/>
<path d="M411.237 116.43C411.307 116.391 411.237 116.291 411.199 116.314C403.622 118.512 395.977 123.23 391.105 129.508C390.944 129.716 391.205 130.061 391.428 129.869C397.721 124.375 403.676 120.018 411.237 116.43Z" fill="#263238"/>
<path d="M416.885 123.86C416.97 123.821 416.885 123.683 416.816 123.706C409.017 126.011 400.556 131.59 395.785 139.466C395.623 139.735 395.746 140.142 395.961 139.85C399.527 134.871 410.062 127.064 416.885 123.86Z" fill="#263238"/>
<path d="M401.348 149.217C406.212 141.841 412.951 136.762 420.627 132.543C420.72 132.489 420.627 132.359 420.543 132.382C416.224 133.419 411.614 136.616 408.248 139.413C405.063 141.943 402.599 145.266 401.102 149.048C401.033 149.217 401.248 149.387 401.348 149.217Z" fill="#263238"/>
<path d="M391.228 129.362C391.036 129.608 391.612 129.615 391.428 129.869C390.659 130.929 386.548 137.73 388.431 139.858C389.968 141.556 393.264 140.696 394.417 139.858L397.298 137.776L395.316 140.765C394.424 142.075 393.749 143.52 393.318 145.045C393.079 145.74 392.991 146.477 393.059 147.208C393.126 147.939 393.348 148.648 393.71 149.287C394.049 149.879 394.582 150.336 395.219 150.581C395.856 150.826 396.558 150.844 397.206 150.631C398.652 150.134 399.945 149.274 400.964 148.134L403.884 145.06L402.132 148.902C401.642 149.965 401.288 151.086 401.079 152.237C400.844 153.32 400.932 154.447 401.333 155.48C401.531 155.935 401.851 156.326 402.258 156.609C402.665 156.893 403.143 157.058 403.638 157.086C404.76 156.972 405.826 156.54 406.711 155.841C408.651 154.359 410.473 152.727 412.159 150.962C413.043 150.101 413.927 149.233 414.857 148.403C415.73 147.529 416.777 146.849 417.93 146.405C416.834 146.96 415.858 147.725 415.056 148.657C414.203 149.54 413.389 150.462 412.574 151.392C410.974 153.312 409.199 155.079 407.272 156.671C406.239 157.548 404.974 158.105 403.63 158.277C402.889 158.284 402.162 158.077 401.536 157.68C400.911 157.283 400.413 156.714 400.103 156.041C399.565 154.773 399.418 153.374 399.681 152.022C399.887 150.736 400.262 149.484 400.795 148.295L401.963 149.064C400.779 150.43 399.258 151.463 397.552 152.061C396.596 152.366 395.563 152.328 394.632 151.953C393.732 151.559 392.972 150.903 392.45 150.07C391.992 149.26 391.712 148.361 391.627 147.434C391.542 146.507 391.655 145.572 391.958 144.692C392.449 143.022 393.215 141.445 394.225 140.027L395.124 140.903C393.587 141.902 390.022 143.27 387.34 140.942C384.374 137.338 390.098 130.53 391.228 129.362Z" fill="#263238"/>
<path d="M391.382 129.369C390.551 129.701 389.676 129.905 388.784 129.976C388.427 130.013 388.065 129.954 387.738 129.804C387.411 129.654 387.13 129.419 386.925 129.123C386.563 128.412 386.416 127.611 386.502 126.818C386.548 125.942 386.641 125.028 386.779 124.083C386.194 124.855 385.78 125.743 385.565 126.687C385.417 127.197 385.371 127.731 385.431 128.259C385.49 128.786 385.653 129.297 385.911 129.761C386.247 130.243 386.721 130.613 387.271 130.821C387.8 130.994 388.367 131.016 388.907 130.883C389.871 130.652 390.737 130.122 391.382 129.369Z" fill="#263238"/>
<path d="M372.963 153.62L411.875 180.722C411.875 180.722 388.631 228.878 374.269 228.748C359.908 228.617 339.161 192.548 332.007 176.957C324.853 161.366 329.117 148.157 343.594 162.357C358.071 176.557 363.258 182.412 363.727 182.22C364.603 181.867 372.963 153.62 372.963 153.62Z" fill="#4BA13A"/>
<path d="M411.875 180.722C411.875 180.722 395.739 214.117 382.069 225.213C379.325 227.441 376.69 228.771 374.269 228.74C359.908 228.617 339.161 192.54 331.968 176.957C327.519 167.306 327.481 158.569 331.523 156.686C334.02 155.526 338.054 156.955 343.564 162.38C358.163 176.68 363.219 182.428 363.696 182.236C364.603 181.867 372.971 153.628 372.971 153.628L411.875 180.722Z" fill="#4BA13A"/>
<path d="M387.793 219.527C387.317 220.08 386.833 220.618 386.349 221.141C381.97 223.898 377.057 225.697 371.933 226.42C370.52 226.576 369.097 226.632 367.676 226.589L366.793 226.035C368.489 226.138 370.191 226.094 371.879 225.905C373.901 225.684 375.89 225.225 377.804 224.537L379.256 224.061L380.662 223.469C381.131 223.269 381.615 223.1 382.069 222.87L383.429 222.178C384.942 221.394 386.4 220.508 387.793 219.527ZM358.271 177.103C353.831 179.123 349.781 181.909 346.307 185.333C344.054 187.553 341.97 189.939 340.075 192.471C340.167 192.64 340.267 192.817 340.375 192.986C342.293 190.411 344.407 187.989 346.699 185.74C349.61 182.88 352.927 180.464 356.542 178.571L357.902 177.879C358.152 177.753 358.408 177.64 358.67 177.541L358.271 177.103ZM391.881 179.554C388.191 177.748 384.33 176.314 380.355 175.274C379.94 175.174 379.525 175.075 379.103 174.99C378.834 174.929 378.557 174.867 378.288 174.821C374.929 174.117 371.481 173.941 368.068 174.298C367.569 174.368 367.077 174.444 366.577 174.537C366.524 174.713 366.462 174.898 366.408 175.067C366.977 174.967 367.553 174.882 368.13 174.813C371.298 174.479 374.497 174.611 377.627 175.205L378.465 175.359C379.056 175.482 379.648 175.612 380.24 175.758C384.181 176.774 388.011 178.18 391.674 179.954C397.16 182.645 402.482 185.66 407.61 188.983C407.687 188.852 407.757 188.721 407.818 188.599C402.69 185.27 397.369 182.249 391.881 179.554ZM395.915 169.611C389.685 169.868 383.615 171.658 378.242 174.821L377.581 175.205C376.224 176.018 374.913 176.906 373.654 177.864C367.069 182.874 361.813 189.313 356.811 195.791C354.306 199.041 351.847 202.315 349.25 205.48C349.065 205.711 348.873 205.934 348.681 206.164L348.973 206.587C349.196 206.326 349.419 206.064 349.634 205.819C352.247 202.645 354.713 199.372 357.226 196.129C362.228 189.674 367.476 183.281 373.993 178.34C375.405 177.263 376.883 176.275 378.419 175.382C378.626 175.251 378.841 175.128 379.056 175.013C380.846 174.009 382.711 173.145 384.635 172.431L386.072 171.909C386.548 171.74 387.048 171.624 387.54 171.478L389.007 171.071L390.544 170.771C392.528 170.324 394.558 170.113 396.592 170.141H396.684L395.915 169.611ZM348.159 166.929C345.474 168.122 342.669 169.022 339.791 169.611L338.292 169.903C337.793 169.995 337.286 170.026 336.755 170.095L335.219 170.272L333.682 170.333C332.279 170.431 330.87 170.405 329.471 170.257L329.609 170.764C336.104 171.238 342.614 170.064 348.535 167.352C348.451 167.206 348.305 167.068 348.159 166.929ZM337.078 157.386C334.357 159.234 331.535 160.93 328.626 162.465C328.626 162.672 328.626 162.88 328.626 163.095C331.73 161.471 334.732 159.66 337.616 157.67C337.432 157.57 337.255 157.47 337.078 157.386Z" fill="white"/>
<path d="M402.677 185.24C401.648 184.387 400.61 183.557 399.565 182.728C397.444 181.052 395.324 179.385 393.203 177.725C388.977 174.429 384.658 171.248 380.309 168.12C377.842 166.337 375.414 164.462 372.871 162.795C372.859 162.786 372.845 162.779 372.83 162.776C372.815 162.772 372.8 162.771 372.785 162.773C372.77 162.775 372.756 162.78 372.743 162.788C372.73 162.796 372.718 162.806 372.709 162.818C372.7 162.83 372.694 162.844 372.69 162.859C372.686 162.873 372.685 162.889 372.687 162.904C372.69 162.919 372.695 162.933 372.702 162.946C372.71 162.959 372.72 162.97 372.732 162.979C374.753 164.762 376.92 166.391 379.018 168.089C381.116 169.788 383.198 171.493 385.327 173.153C389.558 176.442 393.841 179.667 398.174 182.827C399.381 183.719 400.572 184.656 401.824 185.494C402.462 185.924 403.069 186.401 403.715 186.816C404.36 187.23 405.052 187.584 405.682 188.053C405.696 188.061 405.713 188.064 405.729 188.06C405.746 188.057 405.76 188.048 405.77 188.035C405.781 188.022 405.786 188.006 405.785 187.989C405.784 187.973 405.778 187.957 405.766 187.945C404.714 187.061 403.73 186.101 402.677 185.24Z" fill="#263238"/>
<path d="M364.026 181.36C362.541 185.374 361.319 189.481 360.369 193.655C359.862 195.714 359.462 197.796 359.07 199.871C358.655 201.933 358.378 204.02 358.24 206.118C358.24 206.195 358.355 206.195 358.371 206.118C359.016 204.113 359.493 202.023 359.954 199.971C360.415 197.919 360.937 195.852 361.398 193.824C362.328 189.69 363.419 185.594 364.226 181.437C364.231 181.424 364.234 181.41 364.233 181.396C364.233 181.382 364.23 181.368 364.224 181.355C364.218 181.342 364.21 181.331 364.2 181.321C364.19 181.311 364.178 181.304 364.165 181.299C364.152 181.294 364.137 181.291 364.123 181.292C364.109 181.292 364.096 181.295 364.083 181.301C364.07 181.306 364.058 181.315 364.049 181.325C364.039 181.335 364.031 181.347 364.026 181.36Z" fill="#263238"/>
<path opacity="0.1" d="M382.069 225.213C379.325 227.442 376.69 228.771 374.269 228.74C359.908 228.617 339.161 192.541 331.968 176.957C327.519 167.306 327.481 158.569 331.523 156.687L382.069 225.213Z" fill="black"/>
<path d="M359.792 260.337H266.377C265.347 258.447 280.654 176.626 312.159 153.582C319.151 148.472 331.553 151.761 334.996 156.732C352.331 181.713 359.792 260.337 359.792 260.337Z" fill="#4BA13A"/>
<path d="M354.936 224.014C352.604 223.188 350.318 222.237 348.089 221.163C344.962 219.665 341.942 218.005 338.938 216.253L338.5 215.992C335.426 214.171 332.352 212.242 329.34 210.298L328.91 210.021L326.866 208.7C319.95 204.266 313.142 199.702 305.758 196.152C302.108 194.326 298.232 192.993 294.232 192.187C292.224 191.829 290.181 191.715 288.146 191.848C287.639 191.848 287.139 191.956 286.609 192.025C286.263 192.094 285.917 192.14 285.564 192.21C285.618 192.087 285.664 191.971 285.725 191.848C286.002 191.795 286.286 191.749 286.563 191.687C287.07 191.626 287.585 191.549 288.1 191.51C290.155 191.372 292.219 191.483 294.247 191.841C298.29 192.64 302.207 193.977 305.896 195.813C313.319 199.363 320.173 203.928 327.073 208.346L329.102 209.645L329.54 209.921C332.614 211.896 335.687 213.856 338.876 215.708L339.314 215.969C342.234 217.667 345.208 219.281 348.266 220.733C350.402 221.755 352.59 222.665 354.821 223.461L354.936 224.014ZM346.622 185.002L346.307 185.302C340.382 191.072 335.956 198.111 331.784 205.15C330.903 206.651 330.016 208.149 329.125 209.645C329.056 209.775 328.987 209.898 328.91 210.021C327.78 211.927 326.643 213.825 325.46 215.692C324.422 217.337 323.339 218.958 322.186 220.525C322.079 220.671 321.979 220.817 321.871 220.956C320.705 222.531 319.448 224.037 318.106 225.466C316.708 226.95 315.163 228.289 313.496 229.462L312.873 229.9C312.666 230.046 312.435 230.161 312.22 230.292L310.906 231.06C310 231.517 309.066 231.915 308.109 232.251C304.233 233.539 300.175 234.195 296.091 234.195C292.022 234.179 287.966 233.718 283.996 232.82C280.154 232.006 276.428 230.914 272.67 229.823C272.67 229.946 272.609 230.069 272.57 230.184C276.32 231.283 280.085 232.39 283.912 233.212C287.928 234.128 292.033 234.602 296.153 234.626C300.283 234.628 304.387 233.969 308.309 232.674C309.288 232.337 310.243 231.934 311.167 231.468L312.512 230.699C312.739 230.578 312.96 230.445 313.173 230.3L313.811 229.854C315.504 228.669 317.072 227.315 318.49 225.812C319.921 224.281 321.26 222.667 322.501 220.979C322.617 220.833 322.717 220.695 322.816 220.549C323.908 219.058 324.937 217.529 325.89 215.976C327.081 214.109 328.195 212.211 329.348 210.313L329.571 209.937L332.237 205.434C336.417 198.403 340.843 191.426 346.706 185.724L346.806 185.632C346.737 185.409 346.676 185.202 346.622 185.002ZM351.056 203.252C350.464 204.02 349.864 204.742 349.257 205.48C346.713 208.678 343.87 211.627 340.767 214.286C340.152 214.77 339.537 215.254 338.899 215.708L338.5 215.992C337.61 216.619 336.678 217.184 335.71 217.682L335.042 218.044C334.819 218.166 334.573 218.251 334.343 218.359L332.944 218.958C331.991 219.302 331.015 219.582 330.024 219.795C327.642 220.306 325.214 220.563 322.778 220.564H322.186C320.742 220.564 319.297 220.449 317.86 220.295C313.805 219.784 309.819 218.828 305.973 217.444C302.131 216.115 298.343 214.478 294.577 212.834C290.83 211.138 286.98 209.678 283.051 208.461C281.891 208.131 280.746 207.839 279.517 207.624L279.401 207.954C280.6 208.177 281.791 208.461 282.951 208.8C286.858 210.02 290.684 211.483 294.408 213.179C298.174 214.801 301.939 216.445 305.819 217.79C309.698 219.185 313.718 220.154 317.806 220.679C319.159 220.833 320.511 220.933 321.864 220.956C322.063 220.956 322.256 220.956 322.455 220.956C325.035 220.998 327.612 220.755 330.139 220.233C331.15 220.01 332.145 219.725 333.121 219.381L334.55 218.766C334.788 218.658 335.027 218.574 335.257 218.451L335.941 218.082C336.99 217.547 337.997 216.933 338.953 216.245L339.353 215.961C339.937 215.538 340.513 215.093 341.082 214.639C344.216 211.97 347.088 209.005 349.657 205.787C350.169 205.157 350.682 204.52 351.194 203.874C351.148 203.674 351.102 203.459 351.056 203.252ZM341.404 169.25C340.866 169.38 340.329 169.503 339.791 169.611L338.292 169.903C337.793 169.995 337.286 170.026 336.755 170.095L335.219 170.271L333.682 170.333C331.653 170.464 329.615 170.356 327.611 170.01C324.468 169.467 321.422 168.46 318.575 167.021L317.806 166.645C317.269 166.368 316.738 166.076 316.216 165.776C312.698 163.711 309.398 161.296 306.365 158.569L306.027 158.907C309.088 161.663 312.417 164.109 315.962 166.207C316.331 166.422 316.731 166.629 317.084 166.829L317.853 167.213C320.891 168.807 324.156 169.924 327.535 170.525C332.217 171.182 336.983 170.921 341.566 169.757C341.535 169.588 341.466 169.419 341.404 169.25ZM335.933 158.146C331.852 160.883 327.498 163.188 322.939 165.023C321.286 165.667 319.595 166.209 317.876 166.645L317.153 166.829C315.156 167.293 313.127 167.609 311.083 167.774L309.546 167.874C309.039 167.912 308.532 167.874 308.009 167.874H306.472L304.936 167.751C303.084 167.644 301.25 167.338 299.465 166.837C299.357 166.983 299.249 167.129 299.149 167.282C305.286 168.824 311.712 168.8 317.837 167.213L318.606 167.021C320.138 166.615 321.647 166.123 323.124 165.546C327.706 163.698 332.083 161.381 336.187 158.63L335.933 158.146ZM358.916 252.299C358.148 252.299 357.318 252.368 356.519 252.391H356.457L355.989 252.43C352.051 252.842 348.224 253.981 344.701 255.788C342.18 257.104 339.772 258.626 337.501 260.337H337.985C340.152 258.732 342.444 257.303 344.839 256.064C348.392 254.25 352.256 253.121 356.227 252.737H356.511H356.696C357.464 252.737 358.186 252.653 358.924 252.66C358.939 252.522 358.932 252.414 358.916 252.299ZM359.316 255.834C358.481 254.773 357.618 253.731 356.726 252.706C356.642 252.599 356.55 252.499 356.457 252.399L356.142 252.03C353.458 248.901 350.37 246.142 346.96 243.824C345.229 242.695 343.366 241.783 341.412 241.111C340.928 240.95 340.421 240.811 339.929 240.673C339.437 240.535 338.922 240.427 338.392 240.358C337.378 240.166 336.34 240.151 335.319 240.051C331.187 239.9 327.066 240.555 323.185 241.979C319.34 243.441 315.668 245.322 312.235 247.589C306.088 251.546 300.487 256.203 294.501 260.337H294.754C300.709 256.272 306.28 251.7 312.366 247.827C315.786 245.577 319.446 243.713 323.278 242.271C327.12 240.865 331.199 240.22 335.288 240.373C336.294 240.481 337.324 240.496 338.323 240.689C338.83 240.758 339.314 240.904 339.814 241.004C340.313 241.103 340.797 241.273 341.274 241.434C343.199 242.101 345.034 243.004 346.737 244.123C350.118 246.426 353.175 249.17 355.827 252.284C355.873 252.338 355.92 252.384 355.958 252.438L356.227 252.737C357.303 253.99 358.355 255.265 359.37 256.579C359.377 256.333 359.347 256.095 359.301 255.834H359.316Z" fill="white"/>
<path d="M299.757 163.61C280.738 185.609 255.104 224.468 265.578 233.059C282.798 247.182 333.09 255.342 344.632 256.71C349.611 257.31 359.585 224.76 356.258 220.549C352.93 216.338 299.757 213.364 299.395 210.098C299.188 208.247 307.264 192.141 312.458 172.385C318.429 149.609 305.112 157.409 299.757 163.61Z" fill="#AD6359"/>
<path d="M347.544 217.867C347.544 217.867 362.805 217.752 372.786 218.144C378.357 218.359 387.87 219.588 391.889 221.624C397.898 224.66 421.088 241.219 417.2 246.928C413.673 252.092 395.554 235.341 395.554 235.341C395.554 235.341 415.333 250.632 409.946 256.088C404.56 261.543 386.602 239.889 386.602 239.889C386.602 239.889 406.581 256.026 400.134 260.79C395.262 264.363 377.896 245.676 377.896 245.676C377.896 245.676 394.962 259.684 390.114 263.58C384.735 267.883 367.638 251.638 367.638 251.638C353.653 259.461 343.817 257.463 336.901 255.212C335.28 254.635 347.544 217.867 347.544 217.867Z" fill="#AD6359"/>
<path d="M389.053 229.616C391.443 231.33 393.871 233.043 396.1 234.995C398.328 236.947 400.487 238.906 402.531 241.027C407.534 246.222 409.854 250.248 409.677 250.018C405.651 244.493 397.783 237.508 395.554 235.587C393.326 233.666 391.197 231.645 388.977 229.732C388.923 229.647 389 229.578 389.053 229.616Z" fill="#263238"/>
<path d="M381.984 237.538C384.935 239.844 387.955 242.041 390.805 244.492C393.656 246.944 397.514 250.478 400.18 253.106C400.38 253.306 400.18 253.69 399.965 253.498C397.199 250.978 393.088 247.535 390.291 245.046C387.494 242.556 384.796 239.966 381.923 237.592C381.876 237.584 381.938 237.5 381.984 237.538Z" fill="#263238"/>
<path d="M374.669 243.24C379.364 246.552 383.444 250.725 387.348 254.913C387.547 255.12 387.348 255.151 387.102 254.951C382.96 250.994 379.733 247.859 374.554 243.425C374.492 243.333 374.592 243.171 374.669 243.24Z" fill="#263238"/>
<path d="M345.4 217.383C352.362 217.337 372.809 217.283 379.756 217.821C385.903 218.29 390.967 219.611 396.123 223.023C407.188 230.338 414.319 238.929 416.101 241.465C417.177 243.002 418.737 245.484 417.316 247.205C415.571 249.295 409.155 247.251 402.385 241.127C402.139 240.904 402.293 240.766 402.547 240.973C412.052 248.657 415.832 247.781 416.824 246.467C417.469 245.614 416.824 244.162 416.271 243.009C415.345 241.378 414.214 239.873 412.905 238.53C408.539 233.859 403.709 229.644 398.489 225.951C392.898 221.777 386.236 219.275 379.279 218.735C372.164 218.151 352.477 218.336 345.369 217.652C345.223 217.606 345.246 217.391 345.4 217.383Z" fill="#263238"/>
<path d="M411.076 253.014C410.684 251.116 409.316 249.38 408.233 247.812C406.917 245.84 405.406 244.004 403.722 242.333C403.653 242.264 403.523 242.333 403.592 242.441C405.025 244.117 406.357 245.877 407.58 247.712C408.23 248.722 408.82 249.769 409.347 250.847C409.847 251.885 410.438 253.083 410.177 254.267C409.685 256.526 406.811 256.472 405.113 255.865C404.013 255.451 402.953 254.937 401.947 254.328C400.577 253.455 399.277 252.476 398.059 251.401C397.959 251.308 397.683 251.347 397.79 251.447C400.326 253.86 405.129 258.877 409.047 257.041C409.8 256.708 410.413 256.125 410.783 255.391C411.153 254.657 411.257 253.817 411.076 253.014Z" fill="#263238"/>
<path d="M347.774 215.892L329.494 257.386C329.494 257.386 265.608 242.963 261.905 230.838C258.201 218.712 278.218 186.27 296.283 166.015C314.049 146.113 316.677 159.614 312.259 175.005C307.84 190.397 300.594 208.139 301.401 209.469C302.208 210.798 347.774 215.892 347.774 215.892Z" fill="#4BA13A"/>
<path d="M305.512 195.63C305.466 195.745 305.427 195.868 305.381 195.983C301.832 194.238 298.072 192.962 294.193 192.187C292.186 191.829 290.142 191.716 288.107 191.849C287.6 191.849 287.101 191.957 286.571 192.026C286.04 192.095 285.572 192.179 285.08 192.318C284.081 192.533 283.136 192.917 282.16 193.217C278.395 194.649 274.941 196.794 271.986 199.533L272.47 198.696C275.288 196.207 278.532 194.247 282.045 192.909C283.028 192.602 283.989 192.21 285.003 191.995C285.503 191.857 286.017 191.795 286.54 191.688C287.062 191.58 287.562 191.549 288.077 191.511C290.132 191.373 292.196 191.484 294.224 191.841C298.135 192.608 301.93 193.881 305.512 195.63ZM339.322 215.969L338.884 215.708L337.132 214.671L336.072 214.548C336.84 215.032 337.678 215.524 338.484 215.992L338.922 216.254C341.228 217.598 343.533 218.889 345.9 220.096L346.084 219.673C343.809 218.497 341.558 217.26 339.322 215.969ZM326.851 213.426C326.39 214.194 325.921 214.963 325.444 215.693C324.407 217.337 323.324 218.958 322.171 220.526C322.063 220.672 321.964 220.818 321.856 220.956C320.69 222.532 319.432 224.038 318.091 225.467C316.692 226.951 315.148 228.289 313.48 229.463L312.858 229.901C312.65 230.047 312.42 230.162 312.205 230.293L310.891 231.061C309.985 231.518 309.051 231.916 308.094 232.252C304.218 233.539 300.16 234.196 296.076 234.196C292.011 234.179 287.961 233.717 283.996 232.821C279.993 231.968 276.066 230.807 272.125 229.662C268.628 228.648 265.109 227.626 261.513 226.958C261.513 227.081 261.513 227.204 261.513 227.319C265.071 227.987 268.551 229.017 272.032 230.024C275.967 231.176 279.909 232.329 283.927 233.212C287.944 234.129 292.048 234.603 296.168 234.626C300.298 234.629 304.402 233.97 308.324 232.675C309.304 232.338 310.259 231.935 311.183 231.468L312.528 230.7C312.755 230.579 312.975 230.445 313.188 230.3L313.826 229.855C315.519 228.669 317.087 227.315 318.506 225.813C319.936 224.282 321.276 222.668 322.517 220.979C322.632 220.833 322.732 220.695 322.832 220.549C323.923 219.058 324.953 217.529 325.906 215.977C326.428 215.163 326.935 214.333 327.442 213.51L326.851 213.426ZM339.852 214.963C339.537 215.209 339.214 215.455 338.884 215.685L338.484 215.969C337.595 216.597 336.663 217.162 335.695 217.66L335.027 218.021C334.804 218.144 334.558 218.229 334.327 218.336L332.929 218.935C331.975 219.28 331 219.56 330.009 219.773C327.627 220.283 325.198 220.541 322.763 220.541H322.171C320.726 220.541 319.282 220.426 317.845 220.272C313.79 219.762 309.803 218.806 305.958 217.422C302.116 216.092 298.327 214.456 294.562 212.811C290.815 211.116 286.965 209.656 283.036 208.439C279.094 207.309 274.891 206.695 270.811 207.494C269.512 207.755 268.256 208.192 267.076 208.792C266.999 208.946 266.922 209.107 266.853 209.261C268.116 208.588 269.47 208.101 270.872 207.817C274.883 207.048 279.033 207.648 282.936 208.777C286.842 209.998 290.669 211.46 294.393 213.157C298.158 214.778 301.923 216.423 305.804 217.767C309.687 219.172 313.712 220.148 317.807 220.68C319.159 220.833 320.511 220.933 321.864 220.956C322.063 220.956 322.256 220.956 322.455 220.956C325.035 220.998 327.612 220.756 330.139 220.234C331.15 220.011 332.145 219.726 333.121 219.381L334.55 218.766C334.788 218.659 335.027 218.574 335.257 218.451L335.941 218.082C336.99 217.548 337.997 216.934 338.953 216.246L339.353 215.962C339.752 215.67 340.121 215.362 340.551 215.055L339.852 214.963ZM306.396 158.531C306.065 158.239 305.742 157.954 305.42 157.655L305.005 157.924L306.081 158.884C308.582 161.124 311.254 163.167 314.072 164.993C314.072 164.801 314.072 164.609 314.072 164.424C311.375 162.662 308.814 160.7 306.411 158.554L306.396 158.531ZM311.068 167.752L309.531 167.852C309.024 167.89 308.516 167.852 307.994 167.852H306.457L304.92 167.729C302.888 167.607 300.877 167.251 298.927 166.668C298.074 166.415 297.229 166.123 296.399 165.785L296.214 165.992L296.037 166.192C296.933 166.567 297.849 166.893 298.781 167.168C303.648 168.467 308.73 168.75 313.711 167.998C313.711 167.805 313.765 167.621 313.795 167.429C312.942 167.598 312.013 167.706 311.083 167.775L311.068 167.752ZM335.319 240.028C331.186 239.885 327.065 240.548 323.185 241.98C319.34 243.442 315.668 245.323 312.236 247.589C310.315 248.834 308.44 250.141 306.588 251.485L306.887 251.57C308.685 250.271 310.507 249.019 312.374 247.828C315.794 245.577 319.454 243.714 323.285 242.272C327.127 240.865 331.207 240.221 335.296 240.374C335.826 240.428 336.356 240.459 336.886 240.505L337.032 240.182C336.487 240.136 335.903 240.105 335.334 240.051L335.319 240.028Z" fill="white"/>
<path d="M322.163 250.524C322.786 249.341 323.385 248.158 323.984 246.967C325.188 244.554 326.387 242.136 327.581 239.713C329.947 234.903 332.191 230.031 334.35 225.113C335.587 222.332 336.932 219.581 338.046 216.745C338.06 216.717 338.061 216.684 338.05 216.655C338.039 216.625 338.017 216.601 337.989 216.588C337.96 216.574 337.928 216.573 337.898 216.584C337.869 216.595 337.844 216.617 337.831 216.645C336.502 218.989 335.349 221.44 334.12 223.845C332.89 226.25 331.638 228.633 330.454 231.061C328.098 235.871 325.813 240.72 323.6 245.607C322.978 246.974 322.302 248.327 321.741 249.725C321.449 250.44 321.111 251.132 320.826 251.854C320.542 252.576 320.327 253.314 320.058 254.028C320.054 254.036 320.052 254.044 320.052 254.053C320.052 254.061 320.053 254.069 320.056 254.077C320.059 254.085 320.063 254.092 320.069 254.098C320.074 254.104 320.081 254.109 320.089 254.113C320.096 254.117 320.104 254.118 320.113 254.119C320.121 254.119 320.129 254.118 320.137 254.115C320.145 254.112 320.152 254.108 320.158 254.102C320.165 254.097 320.17 254.09 320.173 254.082C320.796 252.891 321.526 251.739 322.163 250.524Z" fill="#263238"/>
<path d="M330.869 254.535L329.586 257.44L329.548 257.532H329.425C323.377 256.41 317.369 255.066 311.398 253.567C305.427 252.069 299.503 250.371 293.64 248.48C287.756 246.621 281.986 244.419 276.358 241.887C273.535 240.617 270.807 239.143 268.198 237.477C266.896 236.628 265.665 235.674 264.517 234.626C263.334 233.611 262.427 232.313 261.882 230.853C262.561 232.224 263.554 233.417 264.779 234.334C265.991 235.266 267.279 236.096 268.628 236.816C271.297 238.3 274.053 239.621 276.881 240.773C282.529 243.117 288.33 245.115 294.163 246.99C299.995 248.865 305.881 250.609 311.782 252.284C317.684 253.959 323.608 255.619 329.54 257.209L329.386 257.286L330.869 254.535Z" fill="#263238"/>
<path d="M347.044 217.506L347.682 215.854L347.751 215.969C341.343 215.546 334.942 215.031 328.541 214.363C322.14 213.694 315.778 212.964 309.415 212.012C307.825 211.766 306.234 211.504 304.644 211.197C303.875 211.036 303.053 210.882 302.231 210.652C302.023 210.59 301.824 210.529 301.601 210.444C301.473 210.402 301.349 210.348 301.232 210.283C301.142 210.235 301.057 210.178 300.978 210.114C300.896 210.044 300.825 209.961 300.771 209.868C300.74 209.808 300.711 209.746 300.686 209.683C300.682 209.653 300.682 209.622 300.686 209.591C300.656 209.299 300.671 209.003 300.732 208.715C300.771 208.508 300.809 208.285 300.863 208.093C301.678 204.904 302.707 201.892 303.752 198.872C305.842 192.794 308.117 186.792 310.514 180.83C308.662 186.977 306.764 193.124 304.874 199.271C303.967 202.345 302.969 205.419 302.269 208.492C302.223 208.684 302.2 208.861 302.162 209.046C302.123 209.23 302.162 209.445 302.123 209.368C302.115 209.328 302.099 209.289 302.077 209.253C302.077 209.176 301.939 209.099 301.97 209.115C301.931 209.115 302 209.13 301.97 209.115L302.162 209.192L302.669 209.353C303.437 209.553 304.206 209.699 304.974 209.852C306.511 210.137 308.117 210.383 309.692 210.621C312.858 211.097 316.029 211.545 319.205 211.966L328.741 213.249C335.096 214.094 341.45 215.001 347.805 215.931H347.92L347.874 216.03L347.044 217.506Z" fill="#263238"/>
<path d="M311.198 184.764C310.747 185.848 310.178 186.879 309.5 187.838C308.863 188.819 308.086 189.701 307.195 190.458C307.779 189.436 308.401 188.468 309.062 187.507C309.703 186.54 310.418 185.623 311.198 184.764Z" fill="#263238"/>
<path d="M329.817 170.572C324.392 172.109 314.618 164.171 310.607 157.555C310.33 157.101 311.421 138.414 311.252 134.687C311.252 133.919 334.873 139.297 334.873 139.297C334.873 139.297 332.929 147.212 333.267 153.705C333.29 154.258 335.05 169.081 329.817 170.572Z" fill="#AD6359"/>
<path d="M310.891 146.39C321.948 154.197 332.721 151.2 333.175 151.062C333.356 147.101 333.904 143.165 334.811 139.305C334.811 139.305 311.144 133.926 311.183 134.695C311.321 136.439 311.129 141.48 310.891 146.39Z" fill="#263238"/>
<path d="M334.758 123.906C335.365 129.423 339.783 133.465 344.616 132.927C349.45 132.389 352.884 127.495 352.3 121.985C351.716 116.476 347.283 112.426 342.442 112.964C337.601 113.502 334.151 118.397 334.758 123.906Z" fill="#455A64"/>
<path d="M331.961 124.567C332.637 130.714 337.547 135.194 342.926 134.603C348.305 134.011 352.147 128.563 351.447 122.423C350.748 116.284 345.869 111.796 340.482 112.388C335.096 112.98 331.284 118.435 331.961 124.567Z" fill="#C7C7C7"/>
<path d="M307.978 106.609C305.397 114.893 309.631 138.883 315.494 144.261C324 152.061 338 152.883 344.639 142.648C351.079 132.72 345.008 101.561 338.446 96.6661C328.787 89.4431 311.79 94.384 307.978 106.609Z" fill="#AD6359"/>
<path d="M327.911 121.67C327.911 121.616 327.803 121.77 327.819 121.839C328.172 123.437 328.318 125.335 326.966 126.15C326.92 126.15 326.966 126.257 326.966 126.234C328.726 125.643 328.51 123.13 327.911 121.67Z" fill="#263238"/>
<path d="M326.151 120.264C323.523 120.563 324.315 125.804 326.751 125.527C329.187 125.251 328.357 120.018 326.151 120.264Z" fill="#263238"/>
<path d="M337.24 120.41C337.24 120.348 337.378 120.471 337.386 120.54C337.578 122.169 338.077 123.998 339.622 124.321C339.668 124.321 339.683 124.413 339.622 124.413C337.785 124.429 337.163 121.985 337.24 120.41Z" fill="#263238"/>
<path d="M338.431 118.481C341.012 117.89 342.004 123.092 339.614 123.645C337.224 124.198 336.248 118.996 338.431 118.481Z" fill="#263238"/>
<path d="M323.723 118.182C324.382 117.878 325.024 117.536 325.644 117.16C326.37 116.894 326.989 116.397 327.404 115.746C327.494 115.515 327.505 115.261 327.435 115.023C327.366 114.786 327.22 114.578 327.02 114.432C326.582 114.202 326.092 114.094 325.599 114.119C325.105 114.143 324.628 114.299 324.215 114.57C323.289 114.988 322.552 115.736 322.148 116.668C322.067 116.885 322.052 117.122 322.103 117.348C322.155 117.574 322.272 117.78 322.439 117.941C322.607 118.102 322.817 118.21 323.045 118.253C323.273 118.296 323.509 118.271 323.723 118.182Z" fill="#263238"/>
<path d="M340.09 115.554C339.365 115.518 338.641 115.443 337.923 115.331C337.152 115.36 336.393 115.133 335.764 114.685C335.591 114.506 335.483 114.274 335.457 114.026C335.431 113.779 335.487 113.529 335.618 113.317C335.94 112.942 336.355 112.658 336.822 112.495C337.289 112.331 337.791 112.294 338.277 112.388C339.291 112.43 340.253 112.849 340.974 113.563C341.129 113.734 341.23 113.946 341.267 114.174C341.303 114.402 341.273 114.635 341.179 114.846C341.086 115.057 340.933 115.236 340.74 115.361C340.547 115.487 340.321 115.554 340.09 115.554Z" fill="#263238"/>
<path d="M328.802 136.877C329.248 137.199 329.717 137.645 330.339 137.645C330.941 137.543 331.515 137.316 332.022 136.977C332.031 136.965 332.044 136.958 332.059 136.957C332.073 136.955 332.088 136.96 332.099 136.969C332.11 136.978 332.117 136.991 332.119 137.006C332.12 137.02 332.116 137.034 332.107 137.046C331.924 137.401 331.648 137.7 331.308 137.91C330.968 138.12 330.577 138.233 330.178 138.237C329.835 138.202 329.509 138.066 329.244 137.845C328.978 137.625 328.785 137.331 328.687 137C328.618 136.923 328.733 136.831 328.802 136.877Z" fill="#263238"/>
<path d="M329.771 131.767C330.28 132.346 330.903 132.813 331.601 133.14C332.299 133.466 333.057 133.645 333.828 133.665C334.503 133.691 335.178 133.622 335.833 133.457C335.96 133.434 336.083 133.398 336.202 133.35C336.319 133.32 336.435 133.284 336.548 133.242C336.632 133.214 336.705 133.159 336.755 133.085C336.805 133.012 336.829 132.924 336.825 132.835C336.82 132.78 336.807 132.725 336.786 132.674V132.535C336.625 131.283 336.218 129.4 336.218 129.4C336.709 129.562 339.199 130.253 339.061 129.608C337.923 124.229 336.656 118.297 334.389 113.218C334.373 113.184 334.346 113.157 334.313 113.142C334.28 113.127 334.242 113.124 334.206 113.134C334.171 113.144 334.14 113.167 334.12 113.198C334.1 113.229 334.092 113.266 334.097 113.302C334.988 118.489 336.786 123.483 337.77 128.67C336.884 128.41 335.965 128.278 335.042 128.278C334.873 128.355 335.895 131.898 335.918 132.466C335.923 132.486 335.923 132.507 335.918 132.528C333.859 133.112 332.183 132.72 329.932 131.621C329.763 131.544 329.655 131.652 329.771 131.767Z" fill="#263238"/>
<path d="M334.996 132.935C334.449 133.929 333.655 134.766 332.691 135.363C332.152 135.67 331.533 135.804 330.916 135.747C329.571 135.601 329.379 134.418 329.44 133.365C329.491 132.805 329.607 132.254 329.786 131.721C331.349 132.67 333.174 133.095 334.996 132.935Z" fill="#263238"/>
<path d="M332.683 135.386C332.144 135.693 331.525 135.827 330.908 135.771C329.563 135.625 329.371 134.441 329.433 133.389C330.869 133.296 332.36 134.034 332.683 135.386Z" fill="#FF99BA"/>
<path opacity="0.2" d="M311.913 115.131C310.968 117.513 309.024 123.107 307.917 123.499C306.864 115.723 306.826 108.669 308.755 104.335C309.552 102.545 310.672 100.917 312.059 99.5322C312.22 101.615 312.919 112.641 311.913 115.131Z" fill="#263238"/>
<path d="M332.698 104.012C332.04 105.152 331.101 106.105 329.969 106.777C328.837 107.45 327.552 107.821 326.236 107.854C324.896 107.889 323.57 107.581 322.382 106.96C321.195 106.339 320.186 105.425 319.451 104.304C319.447 104.297 319.441 104.291 319.435 104.286C319.429 104.281 319.421 104.277 319.413 104.275C319.406 104.273 319.397 104.272 319.389 104.273C319.381 104.274 319.373 104.277 319.366 104.281C319.359 104.285 319.353 104.29 319.348 104.297C319.343 104.303 319.339 104.311 319.337 104.318C319.335 104.326 319.335 104.335 319.336 104.343C319.337 104.351 319.339 104.358 319.343 104.366C320.012 105.616 321.009 106.66 322.228 107.385C323.447 108.109 324.841 108.487 326.259 108.476C327.648 108.398 328.992 107.956 330.156 107.194C331.32 106.432 332.263 105.377 332.89 104.135C332.907 104.11 332.912 104.079 332.906 104.049C332.899 104.02 332.881 103.994 332.856 103.977C332.83 103.961 332.799 103.956 332.77 103.962C332.74 103.969 332.715 103.987 332.698 104.012Z" fill="#263238"/>
<path d="M348.727 91.6483C347.62 89.6065 345.826 88.0223 343.663 87.1762C340.667 85.9928 337.662 86.7843 334.688 87.6372C334.672 87.6372 334.656 87.6437 334.645 87.6553C334.633 87.6668 334.627 87.6824 334.627 87.6987C334.627 87.715 334.633 87.7307 334.645 87.7422C334.656 87.7537 334.672 87.7602 334.688 87.7602C337.216 87.0456 339.829 86.4693 342.411 87.253C344.548 87.8923 346.399 89.2494 347.651 91.0951C348.873 93.0063 349.366 95.2935 349.04 97.5383C348.714 99.7831 347.591 101.836 345.876 103.32C344.866 104.15 343.696 104.764 342.439 105.124C341.183 105.485 339.866 105.585 338.569 105.418C338.469 105.418 338.423 105.557 338.53 105.572C340.296 105.871 342.109 105.673 343.768 104.998C345.426 104.324 346.864 103.2 347.919 101.754C348.974 100.308 349.605 98.5959 349.741 96.8107C349.877 95.0256 349.513 93.2378 348.689 91.6483H348.727Z" fill="#263238"/>
<path d="M307.279 111.396C307.279 111.396 301.724 104.258 304.413 99.1018C305.95 96.1742 312.566 95.3674 312.566 95.3674C312.566 95.3674 314.103 91.9787 319.336 89.781C324.569 87.5834 331.63 88.8743 331.63 88.8743C331.63 88.8743 336.325 84.9708 341.704 86.9072C349.204 89.612 350.157 100.147 343.886 104.68C339.476 107.869 332.191 104.75 332.191 104.75C331.576 104.942 325.813 109.952 319.943 105.057C319.943 105.057 316.6 109.268 312.612 107.424C312.235 108.551 311.522 109.536 310.568 110.246C309.615 110.956 308.467 111.357 307.279 111.396Z" fill="#263238"/>
<path d="M312.981 126.165C312.981 126.165 307.456 118.481 303.967 120.471C300.479 122.461 304.736 133.626 308.855 135.071C309.372 135.299 309.93 135.419 310.495 135.426C311.06 135.433 311.62 135.325 312.142 135.11C312.665 134.895 313.138 134.576 313.535 134.173C313.931 133.77 314.242 133.292 314.449 132.766L312.981 126.165Z" fill="#AD6359"/>
<path d="M305.258 123.652C305.189 123.652 305.181 123.737 305.258 123.76C308.171 124.897 309.73 127.556 310.837 130.322C309.961 129.262 308.785 128.693 307.364 129.738C307.287 129.792 307.364 129.907 307.441 129.892C307.947 129.73 308.49 129.729 308.998 129.887C309.505 130.045 309.951 130.355 310.276 130.776C310.823 131.491 311.289 132.264 311.667 133.081C311.805 133.334 312.266 133.188 312.166 132.896V132.827C312.166 129.093 309.223 123.967 305.258 123.652Z" fill="#263238"/>
<path d="M308.378 120.787C308.378 120.787 305.389 108.876 307.717 101.576C310.307 93.462 320.073 85.5166 331.615 88.8899C331.615 88.8899 318.805 90.542 312.581 101.246C309.723 106.164 312.466 120.364 312.466 120.364L308.378 120.787Z" fill="#C7C7C7"/>
<path d="M320.78 124.798C321.948 130.945 318.544 136.739 313.165 137.768C307.786 138.798 302.469 134.695 301.293 128.547C300.118 122.4 303.529 116.606 308.908 115.577C314.287 114.547 319.605 118.666 320.78 124.798Z" fill="#C7C7C7"/>
<path d="M317.876 124.998C318.928 130.507 315.862 135.755 311.029 136.654C306.196 137.553 301.416 133.85 300.364 128.348C299.311 122.846 302.369 117.59 307.202 116.691C312.036 115.792 316.815 119.48 317.876 124.998Z" fill="#455A64"/>
<path d="M12.9784 260.337H107.232L88.4362 151.016H17.9577L12.9784 260.337Z" fill="#DBDBDB"/>
<path d="M12.9784 260.337H21.2388L25.88 151.016H17.9577L12.9784 260.337Z" fill="#A6A6A6"/>
<path d="M68.8418 103.336C60.0896 112.042 57.5769 126.388 57.5769 126.388C57.5769 126.388 49.1859 140.826 51.5295 148.672C52.1494 150.896 53.2997 152.937 54.8816 154.62C56.4635 156.302 58.4299 157.575 60.6121 158.331L59.7822 153.997C59.7822 153.997 62.5946 159.568 71.9923 161.812C81.3899 164.055 93.8228 161.166 100.293 157.893C104.128 155.973 107.4 153.093 109.79 149.532L107.37 155.833C107.37 155.833 116.491 155.511 121.908 145.806C127.325 136.101 111.765 122.154 110.443 119.15C109.122 116.145 107.447 94.2531 84.4174 98.026C84.4482 97.9722 74.8969 97.3421 68.8418 103.336Z" fill="#263238"/>
<path d="M57.3156 157.709C54.9182 155.918 52.5515 153.866 51.2298 151.331C49.7886 148.702 49.2769 145.665 49.7775 142.709C50.4153 139.167 52.2825 136.039 54.096 132.989C55.9094 129.938 58.0917 126.842 59.9129 123.637C60.0127 123.461 59.7438 123.315 59.6209 123.453C57.5747 125.856 55.666 128.373 53.9039 130.991C52.1012 133.385 50.5848 135.982 49.3856 138.729C48.2649 141.258 47.8967 144.056 48.3252 146.789C48.7785 149.011 49.7648 151.089 51.1991 152.844C52.8973 154.958 55.0411 156.31 57.1927 157.901C57.3156 158.001 57.4463 157.808 57.3156 157.709Z" fill="#263238"/>
<path d="M123.883 135.771C121.117 127.71 113.894 122.592 109.46 115.561C107.078 111.758 105.226 107.547 102.122 104.243C102.037 104.151 101.883 104.297 101.96 104.389C104.511 107.363 105.987 110.943 107.831 114.378C109.796 117.758 112.092 120.935 114.685 123.86C119.249 129.331 124.713 135.809 123.668 143.47C123.184 147.005 121.094 150.924 117.467 152.022C117.328 152.069 117.413 152.299 117.551 152.238C118.982 151.663 120.28 150.804 121.367 149.711C122.455 148.619 123.308 147.316 123.875 145.883C125.097 142.623 125.1 139.032 123.883 135.771Z" fill="#263238"/>
<path d="M124.213 137.937C124.463 134.884 123.759 131.829 122.2 129.193C120.609 126.596 118.112 124.721 115.615 123.045C112.733 121.132 109.698 119.311 107.869 116.276C107.792 116.145 107.608 116.276 107.677 116.406C110.582 121.416 116.13 123.752 119.841 127.971C124.106 132.789 124.113 139.804 121.178 145.314C119.313 148.672 116.68 151.542 113.494 153.69C113.44 153.69 113.494 153.805 113.555 153.766C118.988 150.201 123.775 144.715 124.213 137.937Z" fill="#263238"/>
<path d="M89.389 174.66C112.71 187.461 140.627 203.529 157.731 199.748C165.316 198.073 199.371 153.428 200.816 148.265C202.053 143.831 171.217 125.981 167.774 129.477C161.965 135.34 146.259 168.351 143.954 168.904C141.649 169.457 122.069 165.485 101.691 161.804C82.0815 158.285 73.1987 165.777 89.389 174.66Z" fill="#EB9481"/>
<path d="M197.504 153.828C200.163 150.478 211.013 134.049 213.003 128.801C214.993 123.553 219.65 108.054 215.792 106.102C211.935 104.151 210.229 108.569 210.229 108.569C210.229 108.569 211.159 101.707 207.094 100.116C203.029 98.5258 200.57 105.495 200.57 105.495C200.57 105.495 201.008 98.3798 196.836 97.0428C192.663 95.7057 191.372 103.19 191.372 103.19C191.372 103.19 192.079 96.7047 188.191 97.0428C183.519 97.4961 183.581 109.606 180.937 115.231C180.338 116.507 166.945 140.266 166.945 140.266L197.504 153.828Z" fill="#EB9481"/>
<path d="M191.465 102.583C191.465 111.489 189.928 115.392 185.317 122.815C185.225 122.953 185.417 123.122 185.532 122.984C190.758 116.13 193.386 111.519 191.926 102.56C191.826 102.122 191.465 102.16 191.465 102.583Z" fill="#263238"/>
<path d="M200.524 104.795C199.756 114.016 198.111 118.289 193.801 126.426C193.739 126.541 193.931 126.657 194 126.541C198.895 118.919 201.415 114.247 200.985 104.911C201.008 104.488 200.563 104.373 200.524 104.795Z" fill="#263238"/>
<path d="M209.968 108.976C208.562 117.874 206.979 122.607 201.784 129.969C201.771 129.985 201.76 130.005 201.754 130.025C201.748 130.046 201.746 130.067 201.748 130.089C201.75 130.11 201.757 130.131 201.767 130.15C201.777 130.169 201.791 130.186 201.807 130.199C201.824 130.213 201.843 130.223 201.864 130.229C201.884 130.236 201.906 130.238 201.927 130.236C201.949 130.233 201.97 130.227 201.989 130.217C202.007 130.207 202.024 130.193 202.038 130.176C208.07 123.184 210.091 117.298 210.237 109.045C210.229 108.492 210.06 108.415 209.968 108.976Z" fill="#263238"/>
<path d="M160.344 142.955C160.344 142.955 159.691 131.821 160.49 126.864C161.289 121.908 171.04 104.527 174.882 106.417C179.885 108.868 176.227 120.01 173.722 125.235C173.722 125.235 185.294 130.875 184.403 139.443C183.512 148.011 160.344 142.955 160.344 142.955Z" fill="#EB9481"/>
<path d="M176.066 107.539C179.016 113.064 175.297 119.711 173.238 124.959C173.204 125.035 173.189 125.118 173.195 125.2C173.2 125.283 173.225 125.363 173.268 125.434C173.311 125.505 173.371 125.565 173.442 125.608C173.513 125.651 173.593 125.676 173.676 125.681C178.371 128.371 184.211 133.534 184.71 139.221C184.71 139.255 184.724 139.289 184.748 139.313C184.773 139.338 184.806 139.351 184.841 139.351C184.875 139.351 184.909 139.338 184.933 139.313C184.958 139.289 184.971 139.255 184.971 139.221C185.263 133.073 179.938 127.51 174.613 124.89C176.796 119.511 180.246 112.711 176.15 107.508C176.096 107.485 176.05 107.508 176.066 107.539Z" fill="#263238"/>
<path d="M138.406 167.083L110.336 190.611C110.336 190.611 93.2003 181.698 80.5446 171.455C67.8889 161.212 81.9047 156.233 103.635 159.883C125.366 163.533 138.406 167.083 138.406 167.083Z" fill="#4BA13A"/>
<path d="M105.157 171.809C104.361 170.723 103.441 169.735 102.414 168.866C103.55 171.309 105.192 173.482 107.231 175.244C106.681 174.019 105.984 172.866 105.157 171.809ZM80.5677 171.471L80.9058 171.732C81.1286 171.494 81.3515 171.24 81.5589 170.963C81.2055 171.125 80.875 171.294 80.5523 171.501L80.5677 171.471ZM127.556 171.624C126.228 171.429 124.882 171.388 123.545 171.501C124.799 171.975 126.104 172.302 127.433 172.477C128.76 172.679 130.107 172.722 131.444 172.608C130.185 172.13 128.875 171.8 127.541 171.624H127.556ZM118.158 162.526C118.141 163.039 118.159 163.553 118.212 164.063C118.399 163.602 118.559 163.13 118.688 162.649L118.158 162.526Z" fill="white"/>
<path d="M104.05 185.586C109.76 180.1 115.861 175.005 122.046 170.041C123.798 168.643 125.581 167.275 127.425 165.961C127.479 165.923 127.548 165.961 127.494 166.03C124.59 168.712 121.57 171.271 118.566 173.845C115.561 176.419 112.518 178.993 109.437 181.491C107.693 182.904 105.956 184.318 104.189 185.694C104.081 185.748 103.981 185.655 104.05 185.586Z" fill="#263238"/>
<path d="M122.262 180.615L110.328 190.604C110.328 190.604 93.1926 181.698 80.5369 171.455C76.0417 167.821 74.9122 164.855 76.2876 162.695L122.262 180.615Z" fill="#263238"/>
<path d="M116.483 260.245H27.0326C27.0326 260.245 46.4657 185.194 64.4541 164.063C64.8537 163.579 65.2687 163.118 65.6836 162.688C65.7681 162.588 65.845 162.519 65.9295 162.434C67.322 160.946 68.9433 159.691 70.732 158.715C71.0471 158.546 71.3621 158.385 71.6926 158.246C78.6082 155.057 85.9389 157.701 91.2178 162.219C92.893 163.648 111.857 188.345 113.502 197.727C114.954 206.034 109.345 214.955 109.345 214.955L116.483 260.245Z" fill="#4BA13A"/>
<path d="M95.9435 211.743C92.1349 212.115 88.3592 212.769 84.6479 213.702C82.8037 214.194 81.0057 214.763 79.1999 215.37C78.3009 215.677 77.4018 215.954 76.4951 216.223C75.5511 216.53 74.5731 216.721 73.5828 216.791C73.5645 216.791 73.5469 216.799 73.5339 216.812C73.521 216.825 73.5137 216.842 73.5137 216.861C73.5137 216.879 73.521 216.896 73.5339 216.909C73.5469 216.922 73.5645 216.93 73.5828 216.93C74.5209 216.969 75.4607 216.944 76.3952 216.853C77.295 216.74 78.1859 216.566 79.0616 216.33C80.9365 215.846 82.7807 215.285 84.6479 214.794C88.4131 213.795 92.1707 212.796 95.9973 212.066C96.0401 212.059 96.0783 212.035 96.1036 211.999C96.1288 211.964 96.1389 211.92 96.1318 211.877C96.1247 211.835 96.1008 211.796 96.0655 211.771C96.0302 211.746 95.9863 211.736 95.9435 211.743Z" fill="#263238"/>
<path d="M105.395 215.04C102.251 214.737 99.0935 214.612 95.9359 214.663C94.3991 214.701 92.7931 214.824 91.2178 214.986C90.4494 215.07 89.681 215.162 88.9741 215.262C88.2672 215.362 87.3451 215.593 86.5229 215.693C86.4383 215.693 86.4383 215.839 86.5229 215.831C87.2913 215.762 88.0981 215.831 88.8819 215.793L91.2409 215.708C92.7777 215.662 94.3837 215.623 95.9589 215.554C99.1094 215.424 102.252 215.324 105.403 215.293C105.572 215.301 105.556 215.055 105.395 215.04Z" fill="#263238"/>
<path d="M55.9556 181.706C55.5329 181.168 55.1026 180.638 54.6339 180.169L54.3035 180.861C54.6108 181.337 54.9413 181.806 55.2794 182.259C56.0754 183.337 56.9962 184.317 58.0226 185.179C57.4617 183.95 56.7686 182.785 55.9556 181.706ZM66.3368 162.019C66.1803 163.219 66.1545 164.433 66.2599 165.638C66.7373 164.378 67.0598 163.065 67.2204 161.727C67.2204 161.527 67.2742 161.32 67.2973 161.12C66.9746 161.404 66.6518 161.704 66.3368 162.019ZM93.4847 187.023C93.0061 188.282 92.6761 189.592 92.5011 190.927C92.3075 192.257 92.2637 193.605 92.3705 194.946C92.853 193.689 93.1782 192.378 93.3387 191.042C93.5496 189.713 93.5986 188.364 93.4847 187.023ZM76.3876 230.3C75.914 231.554 75.5891 232.859 75.4194 234.188C75.2245 235.519 75.1832 236.867 75.2964 238.207C76.2097 235.677 76.5815 232.983 76.3876 230.3ZM47.3263 197.627C46.8571 198.89 46.5323 200.202 46.3581 201.538C46.1626 202.866 46.1213 204.212 46.2352 205.55C46.7054 204.29 47.0278 202.98 47.1957 201.646C47.3971 200.316 47.4409 198.967 47.3263 197.627ZM71.3775 192.141C70.0497 191.946 68.7038 191.905 67.3664 192.018C68.6208 192.491 69.9254 192.819 71.2546 192.994C72.5818 193.195 73.9282 193.239 75.2657 193.124C74.0156 192.638 72.7135 192.297 71.3852 192.11L71.3775 192.141ZM103.559 229.024C102.228 228.829 100.88 228.788 99.5397 228.902C102.07 229.815 104.764 230.187 107.447 229.993C106.195 229.518 104.893 229.188 103.566 229.009L103.559 229.024ZM43.4843 225.482C42.1792 225.293 40.8574 225.247 39.5423 225.344H39.4655H39.5346C40.7759 225.802 42.0647 226.119 43.3767 226.289C44.7046 226.484 46.0505 226.525 47.3878 226.412C46.1269 225.952 44.817 225.64 43.4843 225.482ZM77.2328 257.21C75.9049 257.015 74.559 256.974 73.2217 257.087C75.7541 258.002 78.4513 258.371 81.1363 258.17C79.8658 257.701 78.5458 257.379 77.2021 257.21H77.2328ZM40.9332 253.322C39.6027 253.127 38.2542 253.085 36.9144 253.199C38.1695 253.666 39.4741 253.988 40.8025 254.159C42.1319 254.366 43.4818 254.407 44.8213 254.282C43.5563 253.812 42.2413 253.49 40.9024 253.322H40.9332ZM78.1088 173.038C77.0264 173.843 76.039 174.769 75.1658 175.797C76.3919 175.239 77.5517 174.545 78.6236 173.73C79.704 172.928 80.6843 171.999 81.5436 170.963C80.3258 171.527 79.1739 172.222 78.1088 173.038ZM87.6832 214.171C86.6033 214.965 85.6229 215.886 84.7632 216.914C85.9856 216.36 87.1385 215.664 88.198 214.84C89.2797 214.048 90.2603 213.127 91.118 212.096C89.8964 212.658 88.7438 213.36 87.6832 214.186V214.171ZM54.1114 239.313C53.0253 240.106 52.0419 241.03 51.1837 242.064C52.4015 241.501 53.5534 240.805 54.6185 239.99C55.6987 239.188 56.6859 238.268 57.5615 237.246C56.3279 237.792 55.1686 238.491 54.1114 239.329V239.313ZM109.867 203.144C109.072 202.059 108.151 201.071 107.124 200.201C108.261 202.644 109.903 204.818 111.942 206.579C111.39 205.36 110.693 204.212 109.867 203.16V203.144ZM98.4255 249.687C97.6239 248.607 96.7037 247.62 95.6823 246.744C96.221 247.978 96.9157 249.137 97.7493 250.194C98.5432 251.276 99.4642 252.259 100.493 253.122C99.9322 251.904 99.239 250.752 98.4255 249.687ZM64.7385 213.08C63.941 211.996 63.0204 211.009 61.9953 210.137C62.5401 211.369 63.2371 212.528 64.07 213.587C64.8616 214.671 65.7828 215.654 66.8132 216.515C66.2536 215.295 65.5576 214.143 64.7385 213.08Z" fill="white"/>
<path d="M62.6253 164.647C45.4206 178.517 1.36003 233.481 11.2956 246.183C21.2311 258.885 87.2682 253.099 106.44 247.09C112.142 245.307 96.589 209.123 90.4264 207.455C85.2934 206.065 56.8315 214.479 56.2783 212.834C55.6558 210.975 63.3092 200.686 73.0373 178.394C84.256 152.683 70.2249 158.523 62.6253 164.647Z" fill="#EB9481"/>
<path d="M121.509 204.435C134.656 205.972 137.799 208.362 149.579 203.751C157.309 200.732 162.557 204.366 156.901 210.89C147.681 221.563 130.284 223.185 124.098 221.986L121.509 204.435Z" fill="#EB9481"/>
<path d="M84.6326 207.916C84.6326 207.916 100.946 203.698 115.115 203.928C124.92 204.089 146.205 206.817 160.651 232.259C164.078 238.291 164.685 249.326 155.503 241.48C148.987 235.925 146.536 230.43 142.156 227.887C142.156 227.887 141.257 242.003 135.079 245.207C129.675 248.001 124.08 250.407 118.335 252.407C117.726 251.44 117.182 250.434 116.706 249.395C116.706 249.395 110.651 251.838 101.338 248.45L84.6326 207.916Z" fill="#EB9481"/>
<path d="M124.452 205.581C128.294 209.023 136.224 216.446 140.588 224.791C145.475 234.058 152.391 253.222 145.514 256.764C140.473 259.362 137.184 252.269 137.184 252.269C137.184 252.269 138.375 260.798 133.342 262.143C128.732 263.373 126.511 257.733 126.511 257.733C126.511 257.733 126.342 263.027 121.67 263.357C116.045 263.741 117.321 252.6 111.281 248.058C109.921 247.036 124.452 205.581 124.452 205.581Z" fill="#EB9481"/>
<path d="M129.969 228.364C133.042 232.206 137.737 242.656 137.338 252.131C137.338 252.346 137.161 252.453 137.13 252.254C135.689 244.049 133.256 236.05 129.884 228.433C129.875 228.422 129.871 228.407 129.872 228.393C129.874 228.379 129.881 228.365 129.892 228.356C129.903 228.347 129.918 228.343 129.932 228.344C129.946 228.345 129.96 228.353 129.969 228.364Z" fill="#263238"/>
<path d="M120.755 233.527C123.061 237.1 127.433 248.127 126.695 257.694C126.695 257.909 126.503 258.001 126.48 257.801C125.465 249.529 123.513 241.398 120.663 233.566C120.663 233.555 120.666 233.545 120.672 233.536C120.678 233.527 120.686 233.52 120.696 233.515C120.706 233.511 120.717 233.51 120.728 233.512C120.738 233.514 120.748 233.52 120.755 233.527Z" fill="#263238"/>
<path d="M142.179 227.826C146.021 230.131 148.165 232.843 151.023 236.171C152.42 237.837 153.908 239.425 155.48 240.927C156.925 242.272 159.053 244.293 161.22 243.332C162.426 242.794 162.757 241.35 162.857 240.151C162.951 238.803 162.755 237.451 162.28 236.186C162.28 236.124 162.373 236.078 162.396 236.148C162.867 237.263 163.178 238.441 163.318 239.644C163.5 240.775 163.337 241.934 162.849 242.971C161.65 245.092 158.884 244.692 157.147 243.578C156.12 242.867 155.165 242.056 154.297 241.158C153.444 240.32 152.629 239.444 151.838 238.553C150.216 236.708 148.703 234.78 147.104 232.928C145.538 231.162 143.859 229.499 142.079 227.949C142.01 227.887 142.102 227.78 142.179 227.826Z" fill="#263238"/>
<path d="M147.066 244.623C146.612 241.988 143.354 230.661 142.063 227.903C142.055 227.888 142.053 227.872 142.057 227.856C142.062 227.84 142.072 227.826 142.087 227.818C142.101 227.81 142.118 227.808 142.134 227.812C142.149 227.817 142.163 227.827 142.171 227.841C144.607 231.737 147.681 241.196 148.218 244.108C148.756 247.021 149.271 250.625 148.526 253.491C147.404 257.809 144.33 257.886 143.216 257.825C141.9 257.728 140.656 257.186 139.689 256.288C138.588 255.139 137.731 253.78 137.169 252.292C137.169 252.223 137.238 252.161 137.276 252.231C138.337 254.321 140.388 256.649 142.817 256.949C143.354 257.032 143.903 257.007 144.431 256.875C144.959 256.743 145.455 256.507 145.89 256.18C146.802 255.307 147.367 254.133 147.481 252.876C147.816 250.122 147.676 247.33 147.066 244.623Z" fill="#263238"/>
<path d="M126.695 257.694C127.164 258.363 127.94 260.476 129.807 261.367C130.457 261.737 131.186 261.944 131.933 261.969C132.68 261.995 133.422 261.838 134.095 261.513C135.379 260.716 136.302 259.451 136.669 257.986C136.98 256.111 137.147 254.215 137.169 252.315C137.169 252.223 137.284 252.215 137.292 252.315C137.531 254.376 137.458 256.462 137.077 258.501C136.896 259.3 136.558 260.055 136.081 260.721C135.605 261.388 135 261.952 134.303 262.381C133.564 262.785 132.728 262.976 131.887 262.934C131.046 262.892 130.233 262.618 129.538 262.143C128.839 261.659 126.811 259.469 126.465 257.748C126.472 257.694 126.672 257.663 126.695 257.694Z" fill="#263238"/>
<path d="M111.873 247.382C112.428 247.998 112.91 248.676 113.31 249.403C113.763 250.171 114.193 250.901 114.601 251.67C115.41 253.223 116.056 254.855 116.529 256.541C117.021 258.232 117.405 260.076 118.566 261.467C119.109 262.154 119.854 262.654 120.697 262.894C121.54 263.134 122.437 263.102 123.26 262.804C124.133 262.457 124.858 261.819 125.312 260.998C125.839 260.113 126.191 259.135 126.349 258.117C126.346 258.107 126.345 258.097 126.346 258.087C126.347 258.078 126.351 258.068 126.357 258.06C126.362 258.052 126.37 258.045 126.379 258.041C126.387 258.036 126.397 258.034 126.407 258.034C126.417 258.034 126.427 258.036 126.436 258.041C126.444 258.045 126.452 258.052 126.458 258.06C126.463 258.068 126.467 258.078 126.468 258.087C126.469 258.097 126.468 258.107 126.465 258.117C126.399 259.04 126.239 259.954 125.988 260.844C125.698 261.645 125.202 262.355 124.551 262.904C123.869 263.425 123.056 263.748 122.202 263.838C121.348 263.927 120.486 263.779 119.71 263.411C117.989 262.642 117.021 260.906 116.422 259.185C115.753 257.271 115.307 255.296 114.547 253.406C114.155 252.407 113.778 251.408 113.302 250.448C112.825 249.487 112.165 248.488 111.765 247.459C111.719 247.397 111.811 247.313 111.873 247.382Z" fill="#263238"/>
<path d="M105.871 249.764C108.301 250.115 110.758 250.236 113.21 250.125C113.287 250.125 113.333 250.348 113.256 250.363C112.04 250.591 110.804 250.686 109.567 250.648C108.314 250.595 107.076 250.354 105.894 249.933C105.795 249.879 105.795 249.749 105.871 249.764Z" fill="#263238"/>
<path d="M30.4213 221.064C34.529 219.081 38.7738 217.397 43.1231 216.023C47.4269 214.678 51.8238 213.65 56.2783 212.949C58.8217 212.527 61.3728 212.227 63.9624 211.912C64.0392 211.912 64.0546 212.02 63.9624 212.027C59.4865 212.752 55.0558 213.732 50.6919 214.963C46.3479 216.146 42.0294 217.409 37.7365 218.751C35.3084 219.519 32.9109 220.38 30.5058 221.218C30.4213 221.279 30.3444 221.118 30.4213 221.064Z" fill="#263238"/>
<path d="M26.6791 198.019L63.0941 201.977C63.0941 201.977 72.3841 185.072 77.2174 169.496C82.0507 153.92 68.3269 156.948 52.2902 172.047C36.2535 187.146 26.6791 198.019 26.6791 198.019Z" fill="#4BA13A"/>
<path d="M26.6791 198.019L63.0941 201.977C63.0941 201.977 72.3841 185.072 77.2174 169.496C82.0507 153.92 68.3269 156.948 52.2902 172.047C36.2535 187.146 26.6791 198.019 26.6791 198.019Z" fill="#4BA13A"/>
<path d="M66.3982 161.512C66.4019 161.55 66.4019 161.589 66.3982 161.627C66.2032 162.958 66.1619 164.306 66.2752 165.646C66.7526 164.386 67.0752 163.072 67.2358 161.735C67.2358 161.504 67.2972 161.281 67.3203 161.051L66.3982 161.512ZM47.3263 197.627C46.9927 198.465 46.7356 199.332 46.5579 200.217L47.3263 200.293C47.4107 199.407 47.4107 198.514 47.3263 197.627ZM34.6936 189.428L34.3401 189.797C34.7397 189.797 35.1086 189.797 35.5466 189.728C35.2546 189.613 34.9779 189.513 34.6936 189.428ZM67.3741 191.987C67.5892 192.071 67.8121 192.156 68.0349 192.225C68.0747 192.125 68.1209 192.027 68.1732 191.933C67.912 191.941 67.643 191.956 67.3741 191.987ZM55.9555 181.706C55.1538 180.625 54.2337 179.638 53.2123 178.763C53.7526 179.998 54.4471 181.16 55.2793 182.22C56.0753 183.299 56.9962 184.279 58.0225 185.14C57.4592 183.924 56.7662 182.773 55.9555 181.706Z" fill="white"/>
<path d="M61.6187 201.638C61.8185 201.638 63.1555 201.638 63.1555 201.638C63.3169 201.17 66.452 193.954 67.2204 192.417C68.8033 189.259 70.5707 186.186 72.2919 183.104C72.3457 183.004 72.4994 183.104 72.4456 183.173C71.2315 185.863 70.0635 188.552 68.8264 191.257C69.1337 190.896 69.4411 190.535 69.7408 190.166C70.3478 189.397 70.9011 188.629 71.4774 187.815C71.5312 187.745 71.6388 187.815 71.6003 187.899C71.0504 189.011 70.3553 190.044 69.5333 190.973C69.1843 191.381 68.8069 191.763 68.4038 192.118C68.3039 192.34 68.204 192.571 68.0964 192.786C67.328 194.323 63.5397 202.069 63.4014 202.061L61.6494 201.846C61.5188 201.876 61.5188 201.631 61.6187 201.638Z" fill="#263238"/>
<path d="M33.5411 191.833C41.4403 192.364 49.3165 193.447 57.1466 194.676C59.3699 195.03 61.5778 195.432 63.7703 195.883C63.8318 195.883 63.8318 195.99 63.7703 195.983C59.836 195.637 55.9095 195.13 51.9829 194.646C48.0563 194.162 44.099 193.639 40.1724 193.017C37.9594 192.679 35.7387 192.34 33.5334 191.964C33.4412 191.972 33.4412 191.826 33.5411 191.833Z" fill="#263238"/>
<path d="M75.3962 159.284C75.5346 160.882 81.482 171.993 88.6052 172.677C90.9104 172.892 92.6855 160.283 92.6855 160.283L93.0236 159.384L97.8107 146.766L83.9025 134.741L81.8816 133.127C81.8816 133.127 80.7982 136.662 79.4995 141.08C79.4381 141.287 79.3689 141.495 79.3074 141.71C79.246 141.925 79.1538 142.194 79.0846 142.425C78.8848 143.086 78.6773 143.754 78.4929 144.43C78.3469 144.945 78.2009 145.445 78.0626 145.967C77.9243 146.49 77.786 147.043 77.6323 147.581C76.6214 151.426 75.8743 155.336 75.3962 159.284Z" fill="#EB9481"/>
<path d="M79.4996 141.08C80.2916 144.929 81.9114 148.56 84.2467 151.721C86.582 154.881 89.5769 157.496 93.0236 159.384L97.8108 146.766L83.9026 134.741L81.8817 133.127C81.8817 133.127 80.7982 136.662 79.4996 141.08Z" fill="#263238"/>
<path d="M102.022 127.387C103.243 132.766 108.084 136.308 112.833 135.24C117.582 134.172 120.433 128.908 119.211 123.499C117.989 118.089 113.148 114.57 108.399 115.646C103.651 116.721 100.8 121.97 102.022 127.387Z" fill="#455A64"/>
<path d="M99.3092 128.355C100.677 134.372 106.056 138.283 111.343 137.092C116.629 135.901 119.795 130.053 118.435 124.029C117.075 118.004 111.688 114.101 106.409 115.292C101.13 116.483 97.9492 122.323 99.3092 128.355Z" fill="#C7C7C7"/>
<path d="M114.846 120.656C121.301 143.439 108.384 149.855 103.466 151.269C99.0018 152.529 83.649 156.248 74.8738 134.249C66.0986 112.249 74.651 102.045 84.7017 98.6254C94.7525 95.2059 108.392 97.8646 114.846 120.656Z" fill="#EB9481"/>
<path d="M106.916 117.79C106.375 117.843 105.831 117.866 105.287 117.859C104.716 117.968 104.124 117.884 103.605 117.62C103.457 117.506 103.351 117.346 103.304 117.166C103.256 116.985 103.27 116.793 103.343 116.622C103.539 116.305 103.817 116.047 104.146 115.874C104.476 115.701 104.846 115.619 105.218 115.638C105.975 115.554 106.736 115.754 107.354 116.199C107.488 116.31 107.586 116.458 107.638 116.624C107.69 116.79 107.693 116.967 107.647 117.135C107.601 117.303 107.507 117.453 107.378 117.569C107.248 117.686 107.088 117.762 106.916 117.79Z" fill="#263238"/>
<path d="M91.8941 123.092C92.4162 122.93 92.9292 122.74 93.4309 122.523C93.9998 122.397 94.5123 122.09 94.8908 121.647C94.9806 121.483 95.0142 121.295 94.9864 121.11C94.9587 120.925 94.8711 120.755 94.7372 120.625C94.4324 120.41 94.076 120.281 93.7046 120.25C93.3332 120.219 92.9602 120.287 92.624 120.448C91.8952 120.668 91.2737 121.149 90.8797 121.801C90.7988 121.954 90.7642 122.128 90.7799 122.301C90.7956 122.474 90.861 122.639 90.9683 122.775C91.0756 122.912 91.2201 123.014 91.3843 123.07C91.5486 123.126 91.7257 123.134 91.8941 123.092Z" fill="#263238"/>
<path d="M96.5045 127.11C96.5045 127.049 96.4046 127.218 96.4276 127.279C96.9194 128.816 97.1961 130.66 95.9666 131.575C95.9282 131.575 95.9666 131.675 96.005 131.659C97.634 130.929 97.2037 128.47 96.5045 127.11Z" fill="#263238"/>
<path d="M94.6449 125.881C92.0938 126.403 93.3233 131.46 95.69 130.975C98.0567 130.491 96.7811 125.443 94.6449 125.881Z" fill="#263238"/>
<path d="M93.7152 126.388C93.3463 126.788 93.0313 127.395 92.5165 127.579C92.0016 127.764 91.3177 127.372 90.7952 126.957C90.7414 126.918 90.703 126.957 90.7184 127.041C90.9412 128.01 91.556 128.916 92.6317 128.809C93.7075 128.701 94.084 127.687 94.084 126.649C94.0917 126.457 93.8689 126.234 93.7152 126.388Z" fill="#263238"/>
<path d="M105.487 124.336C105.487 124.275 105.633 124.382 105.641 124.444C105.964 126.027 106.594 127.786 108.138 127.971C108.184 127.971 108.2 128.055 108.138 128.063C106.355 128.224 105.541 125.881 105.487 124.336Z" fill="#263238"/>
<path d="M106.494 122.369C108.968 121.601 110.336 126.595 108.031 127.325C105.725 128.055 104.427 123.022 106.494 122.369Z" fill="#263238"/>
<path d="M107.646 122.408C108.115 122.561 108.638 122.938 109.122 122.838C109.606 122.738 109.936 122.07 110.144 121.447C110.144 121.386 110.221 121.447 110.236 121.447C110.528 122.4 110.49 123.484 109.614 123.922C108.738 124.36 107.977 123.668 107.485 122.777C107.393 122.654 107.454 122.323 107.646 122.408Z" fill="#263238"/>
<path d="M100.055 139.743C100.5 140.043 100.977 140.512 101.591 140.412C102.179 140.284 102.734 140.036 103.22 139.682C103.23 139.67 103.243 139.663 103.257 139.662C103.272 139.66 103.286 139.665 103.297 139.674C103.308 139.683 103.316 139.696 103.317 139.711C103.318 139.725 103.314 139.74 103.305 139.751C103.138 140.106 102.879 140.41 102.555 140.63C102.23 140.851 101.852 140.98 101.461 141.003C101.118 140.986 100.788 140.866 100.514 140.659C100.24 140.453 100.034 140.168 99.9239 139.843C99.8701 139.758 99.9854 139.705 100.055 139.743Z" fill="#263238"/>
<path d="M105.211 131.936C105.211 131.936 106.125 134.187 106.409 135.286C106.409 135.394 102.629 137.238 100.185 134.979C100.16 134.961 100.142 134.935 100.136 134.904C100.131 134.874 100.137 134.843 100.154 134.817C100.172 134.792 100.198 134.774 100.229 134.769C100.259 134.763 100.29 134.769 100.316 134.787C101.964 135.387 103.762 135.438 105.441 134.933C105.441 134.61 103.735 131.129 103.904 131.091C104.778 130.947 105.667 130.921 106.548 131.014C104.765 126.273 102.245 121.854 100.546 117.098C100.531 117.063 100.53 117.023 100.543 116.987C100.555 116.951 100.581 116.921 100.614 116.902C100.648 116.884 100.687 116.879 100.724 116.888C100.762 116.897 100.794 116.92 100.815 116.952C103.789 121.401 105.956 126.818 107.915 131.667C108.177 132.259 105.725 132.013 105.211 131.936Z" fill="#263238"/>
<path d="M105.433 135.463C105.025 136.483 104.364 137.382 103.512 138.076C103.034 138.434 102.458 138.638 101.86 138.66C100.546 138.66 100.201 137.576 100.154 136.554C100.136 136.013 100.18 135.472 100.285 134.94C101.901 135.661 103.706 135.844 105.433 135.463Z" fill="#263238"/>
<path d="M103.512 138.076C103.034 138.434 102.458 138.638 101.86 138.66C100.546 138.66 100.201 137.576 100.154 136.554C101.499 136.316 103.036 136.838 103.512 138.076Z" fill="#FF99BA"/>
<path d="M75.9726 133.488C80.3832 133.772 80.8904 123.683 80.8904 123.683C80.8904 123.683 99.3322 119.388 99.9931 104.112C99.9931 104.112 103.781 113.594 113.824 117.374C113.824 117.374 112.157 100.777 98.7713 98.3487C98.7713 98.3487 82.0353 93.3847 73.6212 106.939C65.2072 120.494 73.0142 133.296 75.9726 133.488Z" fill="#263238"/>
<path d="M99.9931 102.982C100.357 105.313 100.218 107.695 99.5858 109.967C98.9888 112.277 97.9157 114.436 96.4353 116.307C96.0724 116.777 95.6797 117.224 95.2597 117.644L94.6449 118.297C94.4298 118.497 94.1993 118.681 93.9687 118.873C93.5077 119.242 93.062 119.642 92.5856 119.987C92.1092 120.333 91.5867 120.617 91.0488 120.925C90.7952 121.071 90.5493 121.232 90.2804 121.37L89.512 121.739L87.906 122.469C86.7995 122.853 85.6776 123.176 84.5634 123.484C85.6008 122.953 86.6765 122.531 87.6985 122.001L89.1969 121.155L89.9653 120.733C90.2035 120.579 90.4264 120.402 90.6569 120.233C91.1179 119.895 91.579 119.565 92.0477 119.242C92.5164 118.919 92.893 118.474 93.3156 118.128L93.9534 117.567L94.522 116.937C94.9129 116.533 95.2798 116.107 95.6208 115.661C97.0173 113.88 98.1008 111.874 98.8251 109.729C99.1958 108.652 99.4784 107.547 99.6703 106.425C99.8747 105.289 99.9827 104.137 99.9931 102.982Z" fill="#263238"/>
<path d="M79.2614 133.25C79.2614 133.25 72.7914 126.957 69.8484 129.408C66.9054 131.859 72.7376 141.649 76.8794 142.34C77.4042 142.467 77.9491 142.485 78.4814 142.396C79.0137 142.306 79.5223 142.109 79.9766 141.818C80.431 141.526 80.8217 141.146 81.1254 140.7C81.429 140.253 81.6392 139.75 81.7434 139.221L79.2614 133.25Z" fill="#EB9481"/>
<path d="M71.5926 132.167C71.5783 132.167 71.5647 132.172 71.5546 132.182C71.5445 132.192 71.5388 132.206 71.5388 132.22C71.5388 132.235 71.5445 132.248 71.5546 132.258C71.5647 132.269 71.5783 132.274 71.5926 132.274C74.5203 132.85 76.4259 135.094 77.932 137.507C76.9331 136.662 75.7267 136.324 74.5664 137.507C74.5049 137.576 74.5664 137.668 74.6663 137.638C75.115 137.396 75.6275 137.299 76.1336 137.359C76.6398 137.42 77.1149 137.635 77.494 137.976C78.1248 138.548 78.6916 139.187 79.1845 139.881C79.3536 140.104 79.7685 139.881 79.6225 139.628L79.5841 139.566C78.9847 136.155 75.3655 131.805 71.5926 132.167Z" fill="#263238"/>
<path d="M74.8353 130.046C74.8353 130.046 70.6398 118.865 72.0921 111.565C73.7058 103.436 83.7796 94.161 95.2981 97.6342C95.2981 97.6342 81.5973 99.6859 76.7564 110.697C74.528 115.769 78.7389 129.193 78.7389 129.193L74.8353 130.046Z" fill="#C7C7C7"/>
<path d="M81.306 145.98C86.391 144.396 89.0493 138.412 87.2434 132.614C85.4374 126.815 79.8512 123.399 74.7662 124.983C69.6811 126.567 67.0229 132.551 68.8288 138.349C70.6347 144.147 76.221 147.564 81.306 145.98Z" fill="#C7C7C7"/>
<path d="M84.4712 133.081C86.0926 138.29 83.7028 143.669 79.0924 145.091C74.4819 146.512 69.5026 143.447 67.8736 138.237C66.2446 133.027 68.642 127.648 73.2525 126.219C77.8629 124.79 82.8499 127.902 84.4712 133.081Z" fill="#455A64"/>
<path d="M92.9698 159.46L88.7435 170.126L75.4501 156.717L71.7233 161.051C71.7233 161.051 84.7862 182.398 84.8323 181.429L89.1815 172.208L95.544 178.563L94.9677 162.565L92.9698 159.46Z" fill="#EBEBEB"/>
<path d="M95.7361 170.648C95.544 168.012 95.4364 165.338 95.1291 162.71C95.1291 162.618 94.9677 162.58 94.9446 162.71C94.4298 165.262 95.1905 175.366 95.1905 177.787C94.9293 177.51 89.2968 172.193 89.243 172.277C88.2979 173.737 85.109 180.438 84.8938 181.045C82.8268 177.656 74.0823 164.293 71.6465 161.066C71.6319 161.051 71.6129 161.042 71.5924 161.039C71.5719 161.037 71.5511 161.041 71.5334 161.052C71.5156 161.062 71.502 161.079 71.4946 161.098C71.4873 161.117 71.4866 161.139 71.4928 161.158C73.3139 164.739 84.6095 182.374 84.7709 182.328C86.4513 179.167 87.9696 175.923 89.3199 172.608C90.2727 173.768 95.9589 179.769 95.9743 179.377C96.0456 176.465 95.9661 173.552 95.7361 170.648Z" fill="#263238"/>
<path d="M169.872 88.3979C169.411 92.8181 167.731 97.0232 165.019 100.544C162.307 104.065 158.67 106.763 154.513 108.337C150.357 109.911 145.846 110.299 141.482 109.458C137.118 108.617 133.073 106.58 129.8 103.574L117.797 105.334L123.806 94.9602C122.446 91.5859 121.872 87.9466 122.126 84.3175C122.381 80.6884 123.457 77.1648 125.275 74.0134C127.092 70.8619 129.603 68.1653 132.617 66.1276C135.631 64.09 139.068 62.7646 142.67 62.252C146.272 61.7394 149.943 62.0528 153.405 63.1687C156.868 64.2846 160.031 66.1736 162.656 68.6928C165.281 71.2119 167.298 74.2952 168.555 77.7091C169.812 81.1231 170.275 84.7783 169.911 88.3979H169.872Z" fill="white"/>
<path d="M169.872 88.3978C169.408 92.8205 167.733 97.0294 165.031 100.562C163.704 102.326 162.119 103.881 160.329 105.172C158.561 106.512 156.613 107.596 154.543 108.392C152.47 109.202 150.295 109.72 148.08 109.929C146.974 110.03 145.862 110.05 144.753 109.99C143.639 109.964 142.529 109.848 141.434 109.644C137.008 108.848 132.891 106.833 129.546 103.827L129.831 103.912L117.843 105.756L116.975 105.887L117.413 105.118L123.399 94.7219V95.1368C121.991 91.6982 121.393 87.9821 121.65 84.2755C121.908 80.5689 123.013 76.971 124.882 73.7596C126.748 70.5603 129.315 67.8255 132.389 65.7605C135.461 63.7261 138.954 62.4135 142.606 61.9211C146.258 61.4287 149.973 61.7693 153.474 62.9174C156.933 64.0991 160.084 66.0393 162.695 68.5959C165.311 71.1393 167.316 74.2426 168.559 77.6724C169.802 81.1023 170.251 84.7694 169.872 88.3978ZM169.872 88.3978C170.256 84.7855 169.805 81.1335 168.554 77.723C167.303 74.3126 165.286 71.2349 162.658 68.7271C160.029 66.2193 156.861 64.3484 153.395 63.2586C149.93 62.1687 146.261 61.889 142.671 62.441C139.114 62.9753 135.726 64.3157 132.766 66.3599C129.835 68.4161 127.386 71.0852 125.589 74.1823C123.821 77.2905 122.78 80.7592 122.546 84.3274C122.312 87.8957 122.89 91.4706 124.237 94.7833L124.321 94.9985L124.206 95.1906L118.166 105.549L117.736 104.911L129.746 103.228H129.915L130.03 103.343C133.249 106.347 137.24 108.396 141.556 109.26C142.628 109.475 143.715 109.606 144.807 109.652C145.899 109.729 146.996 109.729 148.088 109.652C150.279 109.481 152.435 109.008 154.496 108.246C156.569 107.499 158.52 106.448 160.283 105.126C162.085 103.843 163.676 102.288 165.001 100.516C167.71 97.0025 169.396 92.8089 169.872 88.3978Z" fill="#263238"/>
<path d="M156.487 89.5352C158.091 89.5352 159.391 88.2348 159.391 86.6307C159.391 85.0265 158.091 83.7261 156.487 83.7261C154.882 83.7261 153.582 85.0265 153.582 86.6307C153.582 88.2348 154.882 89.5352 156.487 89.5352Z" fill="#263238"/>
<path d="M146.075 89.5352C147.679 89.5352 148.979 88.2348 148.979 86.6307C148.979 85.0265 147.679 83.7261 146.075 83.7261C144.471 83.7261 143.17 85.0265 143.17 86.6307C143.17 88.2348 144.471 89.5352 146.075 89.5352Z" fill="#263238"/>
<path d="M135.67 89.5352C137.275 89.5352 138.575 88.2348 138.575 86.6307C138.575 85.0265 137.275 83.7261 135.67 83.7261C134.066 83.7261 132.766 85.0265 132.766 86.6307C132.766 88.2348 134.066 89.5352 135.67 89.5352Z" fill="#263238"/>
<path d="M408.479 88.3978C408.018 92.818 406.337 97.0231 403.625 100.544C400.913 104.065 397.276 106.762 393.12 108.336C388.964 109.91 384.452 110.299 380.088 109.458C375.724 108.617 371.68 106.58 368.406 103.574L356.404 105.334L362.405 94.96C361.039 91.584 360.46 87.9414 360.711 84.3083C360.962 80.6752 362.037 77.147 363.855 73.9911C365.672 70.8352 368.184 68.1345 371.2 66.0938C374.217 64.053 377.658 62.7257 381.263 62.2125C384.869 61.6993 388.544 62.0138 392.009 63.1319C395.475 64.2501 398.641 66.1426 401.267 68.6661C403.893 71.1896 405.909 74.2778 407.164 77.6965C408.419 81.1152 408.879 84.7748 408.51 88.3978H408.479Z" fill="white"/>
<path d="M408.479 88.3977C408.011 92.8195 406.336 97.0275 403.638 100.562C402.963 101.436 402.237 102.27 401.463 103.059C400.663 103.825 399.816 104.541 398.928 105.203C397.162 106.546 395.213 107.63 393.141 108.422C391.072 109.233 388.899 109.751 386.687 109.959C385.578 110.06 384.464 110.081 383.352 110.021C382.238 109.994 381.128 109.878 380.032 109.675C375.611 108.863 371.502 106.835 368.168 103.82L368.452 103.904L356.465 105.748L355.597 105.879L356.035 105.111L362.005 94.7141V95.129C360.599 91.6906 360 87.975 360.256 84.2687C360.512 80.5625 361.615 76.9644 363.481 73.7518C365.35 70.5522 367.919 67.8174 370.996 65.7527C374.068 63.7183 377.561 62.4057 381.212 61.9133C384.864 61.4209 388.58 61.7615 392.081 62.9096C395.54 64.0904 398.691 66.0307 401.302 68.5881C403.92 71.1313 405.926 74.2357 407.169 77.6673C408.413 81.0988 408.86 84.7679 408.479 88.3977ZM408.479 88.3977C408.862 84.7854 408.411 81.1333 407.16 77.7229C405.909 74.3125 403.892 71.2348 401.264 68.727C398.636 66.2192 395.467 64.3483 392.002 63.2584C388.537 62.1686 384.868 61.8889 381.277 62.4409C377.72 62.9752 374.332 64.3156 371.372 66.3597C368.441 68.4159 365.992 71.0851 364.195 74.1822C362.415 77.2891 361.364 80.7601 361.122 84.3328C360.896 87.8982 361.471 91.4689 362.805 94.7832L362.897 94.9984L362.782 95.1905L356.742 105.549L356.312 104.911L368.322 103.228H368.491L368.606 103.343C371.814 106.341 375.791 108.389 380.094 109.26C381.165 109.475 382.252 109.606 383.344 109.652C384.437 109.729 385.533 109.729 386.625 109.652C388.816 109.481 390.973 109.008 393.034 108.246C395.106 107.498 397.056 106.446 398.82 105.126C400.618 103.84 402.206 102.285 403.53 100.516C406.27 97.0124 407.983 92.8173 408.479 88.3977Z" fill="#263238"/>
<path d="M395.055 89.5352C396.659 89.5352 397.959 88.2348 397.959 86.6307C397.959 85.0265 396.659 83.7261 395.055 83.7261C393.451 83.7261 392.15 85.0265 392.15 86.6307C392.15 88.2348 393.451 89.5352 395.055 89.5352Z" fill="#263238"/>
<path d="M384.65 89.5352C386.255 89.5352 387.555 88.2348 387.555 86.6307C387.555 85.0265 386.255 83.7261 384.65 83.7261C383.046 83.7261 381.746 85.0265 381.746 86.6307C381.746 88.2348 383.046 89.5352 384.65 89.5352Z" fill="#263238"/>
<path d="M377.151 86.6308C377.152 87.2056 376.983 87.7679 376.665 88.2466C376.347 88.7252 375.894 89.0987 375.363 89.3198C374.833 89.5408 374.248 89.5994 373.684 89.4882C373.12 89.377 372.602 89.101 372.195 88.6951C371.788 88.2891 371.511 87.7716 371.398 87.208C371.285 86.6443 371.342 86.0599 371.562 85.5287C371.782 84.9975 372.154 84.5434 372.632 84.2239C373.11 83.9044 373.671 83.7339 374.246 83.7339C375.015 83.7339 375.753 84.0389 376.297 84.5819C376.842 85.125 377.149 85.8618 377.151 86.6308Z" fill="#263238"/>
<path d="M130.161 258.462H125.02V261.82H130.161V258.462Z" fill="#455A64"/>
<path d="M136.831 258.239H131.69V261.597H136.831V258.239Z" fill="#455A64"/>
<path d="M143.5 258.017H138.36V261.375H143.5V258.017Z" fill="#455A64"/>
<path d="M150.163 257.794H145.022V261.152H150.163V257.794Z" fill="#455A64"/>
<path d="M156.832 257.571H151.692V260.929H156.832V257.571Z" fill="#455A64"/>
<path d="M163.502 257.355H158.362V260.713H163.502V257.355Z" fill="#455A64"/>
<path d="M170.164 257.133H165.024V260.491H170.164V257.133Z" fill="#455A64"/>
<path d="M176.834 256.91H171.693V260.268H176.834V256.91Z" fill="#455A64"/>
<path d="M183.496 256.687H178.356V260.045H183.496V256.687Z" fill="#455A64"/>
<path d="M184.756 263.749H123.76V259.661L184.756 257.963V263.749Z" fill="#37474F"/>
<path d="M244.293 247.643H143.6L159.614 172.677H260.306L244.293 247.643Z" fill="#455A64"/>
<path d="M248.02 247.643H147.319L163.333 172.677H264.033L248.02 247.643Z" fill="#37474F"/>
<path d="M214.379 205.819C214.07 207.525 213.185 209.074 211.872 210.207C210.559 211.34 208.897 211.988 207.163 212.043C206.381 212.067 205.603 211.914 204.889 211.594C204.175 211.275 203.542 210.798 203.038 210.199C202.535 209.6 202.173 208.895 201.981 208.136C201.789 207.377 201.772 206.585 201.93 205.819C202.236 204.111 203.118 202.561 204.43 201.426C205.743 200.292 207.404 199.642 209.138 199.587C209.922 199.561 210.701 199.714 211.417 200.033C212.133 200.352 212.767 200.83 213.272 201.43C213.777 202.03 214.138 202.737 214.33 203.497C214.522 204.257 214.538 205.051 214.379 205.819Z" fill="#263238"/>
<path d="M219.542 267.222H170.018V263.373L219.542 261.774V267.222Z" fill="#455A64"/>
<path d="M233.005 267.215H206.41L190.396 225.206H216.991L233.005 267.215Z" fill="#455A64"/>
<path d="M237.377 267.215H210.79L194.776 225.206H221.363L237.377 267.215Z" fill="#263238"/>
<path d="M121.862 268.244H70.8243C66.4674 268.244 72.7684 255.834 88.6745 251.078C104.581 246.321 126.895 263.587 121.862 268.244Z" fill="#37474F"/>
<path d="M101.883 268.244C101.918 266.83 102.151 265.429 102.575 264.08C102.985 262.716 103.56 261.407 104.289 260.184C105.019 258.953 105.933 257.841 107.001 256.887C108.06 255.941 109.277 255.189 110.597 254.667C110.052 255.112 109.429 255.435 108.93 255.919L108.161 256.588L107.439 257.356C106.495 258.344 105.668 259.437 104.972 260.614C104.266 261.791 103.659 263.024 103.159 264.302C102.646 265.586 102.22 266.903 101.883 268.244Z" fill="#263238"/>
<path d="M107.892 256.434C110.93 257.395 113.803 258.812 116.414 260.637C117.736 261.55 118.932 262.632 119.972 263.856C121.063 265.074 121.727 266.615 121.862 268.244C121.439 266.742 120.628 265.377 119.511 264.287C118.422 263.178 117.231 262.175 115.953 261.29C114.685 260.376 113.356 259.553 112.003 258.747C110.651 257.94 109.291 257.179 107.892 256.434Z" fill="#263238"/>
<path d="M365.955 258.462H360.814V261.82H365.955V258.462Z" fill="#455A64"/>
<path d="M372.625 258.239H367.484V261.597H372.625V258.239Z" fill="#455A64"/>
<path d="M379.295 258.017H374.154V261.375H379.295V258.017Z" fill="#455A64"/>
<path d="M385.957 257.794H380.816V261.152H385.957V257.794Z" fill="#455A64"/>
<path d="M392.627 257.571H387.486V260.929H392.627V257.571Z" fill="#455A64"/>
<path d="M399.296 257.355H394.156V260.713H399.296V257.355Z" fill="#455A64"/>
<path d="M405.958 257.133H400.818V260.491H405.958V257.133Z" fill="#455A64"/>
<path d="M412.628 256.91H407.488V260.268H412.628V256.91Z" fill="#455A64"/>
<path d="M419.298 256.687H414.157V260.045H419.298V256.687Z" fill="#455A64"/>
<path d="M420.558 263.749H359.562V259.661L420.558 257.963V263.749Z" fill="#37474F"/>
<path d="M480.087 247.643H379.395L395.408 172.677H496.101L480.087 247.643Z" fill="#455A64"/>
<path d="M483.814 247.643H383.121L399.135 172.677H499.827L483.814 247.643Z" fill="#37474F"/>
<path d="M450.173 205.819C449.864 207.524 448.981 209.072 447.669 210.205C446.357 211.337 444.697 211.986 442.965 212.043C442.182 212.068 441.404 211.916 440.688 211.597C439.973 211.278 439.339 210.801 438.835 210.202C438.33 209.603 437.968 208.897 437.776 208.138C437.584 207.379 437.566 206.586 437.724 205.819C438.031 204.112 438.914 202.562 440.226 201.428C441.538 200.294 443.199 199.644 444.932 199.587C445.716 199.561 446.495 199.714 447.211 200.033C447.927 200.352 448.561 200.83 449.066 201.43C449.571 202.03 449.933 202.737 450.124 203.497C450.316 204.257 450.332 205.051 450.173 205.819Z" fill="#263238"/>
<path d="M455.336 267.222H405.812V263.373L455.336 261.774V267.222Z" fill="#455A64"/>
<path d="M468.799 267.215H442.204L426.191 225.206H452.785L468.799 267.215Z" fill="#455A64"/>
<path d="M473.179 267.215H446.584L430.571 225.206H457.165L473.179 267.215Z" fill="#263238"/>
<path d="M357.679 268.244H306.618C302.262 268.244 308.563 255.834 324.469 251.078C340.375 246.321 362.689 263.587 357.679 268.244Z" fill="#37474F"/>
<path d="M337.639 268.244C337.677 266.831 337.91 265.429 338.331 264.08C338.744 262.717 339.319 261.409 340.044 260.184C340.779 258.956 341.694 257.845 342.757 256.887C343.815 255.941 345.033 255.189 346.353 254.667C345.807 255.112 345.185 255.435 344.685 255.919L343.917 256.588L343.195 257.356C342.246 258.342 341.416 259.435 340.72 260.614C340.014 261.791 339.407 263.024 338.907 264.302C338.397 265.587 337.973 266.904 337.639 268.244Z" fill="#263238"/>
<path d="M343.687 256.434C346.724 257.395 349.597 258.812 352.208 260.637C353.53 261.552 354.729 262.634 355.774 263.856C356.861 265.066 357.53 266.594 357.679 268.213C357.253 266.71 356.44 265.346 355.32 264.256C354.231 263.147 353.04 262.144 351.763 261.259C350.502 260.345 349.165 259.523 347.813 258.716C346.46 257.909 345.093 257.179 343.687 256.434Z" fill="#263238"/>
</svg>
